G04 #@! TF.GenerationSoftware,KiCad,Pcbnew,6.0.0*
G04 #@! TF.CreationDate,2022-01-16T15:10:03+01:00*
G04 #@! TF.ProjectId,ESP32 UWB,45535033-3220-4555-9742-2e6b69636164,rev?*
G04 #@! TF.SameCoordinates,Original*
G04 #@! TF.FileFunction,Legend,Top*
G04 #@! TF.FilePolarity,Positive*
%FSLAX46Y46*%
G04 Gerber Fmt 4.6, Leading zero omitted, Abs format (unit mm)*
G04 Created by KiCad (PCBNEW 6.0.0) date 2022-01-16 15:10:03*
%MOMM*%
%LPD*%
G01*
G04 APERTURE LIST*
G04 Aperture macros list*
%AMRoundRect*
0 Rectangle with rounded corners*
0 $1 Rounding radius*
0 $2 $3 $4 $5 $6 $7 $8 $9 X,Y pos of 4 corners*
0 Add a 4 corners polygon primitive as box body*
4,1,4,$2,$3,$4,$5,$6,$7,$8,$9,$2,$3,0*
0 Add four circle primitives for the rounded corners*
1,1,$1+$1,$2,$3*
1,1,$1+$1,$4,$5*
1,1,$1+$1,$6,$7*
1,1,$1+$1,$8,$9*
0 Add four rect primitives between the rounded corners*
20,1,$1+$1,$2,$3,$4,$5,0*
20,1,$1+$1,$4,$5,$6,$7,0*
20,1,$1+$1,$6,$7,$8,$9,0*
20,1,$1+$1,$8,$9,$2,$3,0*%
%AMFreePoly0*
4,1,6,0.725000,-0.725000,-0.725000,-0.725000,-0.725000,0.125000,-0.125000,0.725000,0.725000,0.725000,0.725000,-0.725000,0.725000,-0.725000,$1*%
G04 Aperture macros list end*
%ADD10C,0.200000*%
%ADD11C,0.100000*%
%ADD12C,0.146304*%
%ADD13C,0.201168*%
%ADD14C,0.182880*%
%ADD15C,0.121920*%
%ADD16C,0.146000*%
%ADD17C,0.150000*%
%ADD18C,0.101600*%
%ADD19C,0.127000*%
%ADD20C,0.120000*%
%ADD21RoundRect,0.050000X1.225000X-0.500000X1.225000X0.500000X-1.225000X0.500000X-1.225000X-0.500000X0*%
%ADD22RoundRect,0.050000X-0.500000X-1.225000X0.500000X-1.225000X0.500000X1.225000X-0.500000X1.225000X0*%
%ADD23RoundRect,0.050000X4.500000X5.500000X-4.500000X5.500000X-4.500000X-5.500000X4.500000X-5.500000X0*%
%ADD24RoundRect,0.237500X0.237500X-0.250000X0.237500X0.250000X-0.237500X0.250000X-0.237500X-0.250000X0*%
%ADD25RoundRect,0.237500X0.237500X-0.300000X0.237500X0.300000X-0.237500X0.300000X-0.237500X-0.300000X0*%
%ADD26RoundRect,0.237500X0.300000X0.237500X-0.300000X0.237500X-0.300000X-0.237500X0.300000X-0.237500X0*%
%ADD27RoundRect,0.237500X0.237500X-0.287500X0.237500X0.287500X-0.237500X0.287500X-0.237500X-0.287500X0*%
%ADD28RoundRect,0.237500X-0.237500X0.250000X-0.237500X-0.250000X0.237500X-0.250000X0.237500X0.250000X0*%
%ADD29RoundRect,0.237500X-0.250000X-0.237500X0.250000X-0.237500X0.250000X0.237500X-0.250000X0.237500X0*%
%ADD30RoundRect,0.150000X0.587500X0.150000X-0.587500X0.150000X-0.587500X-0.150000X0.587500X-0.150000X0*%
%ADD31RoundRect,0.237500X0.250000X0.237500X-0.250000X0.237500X-0.250000X-0.237500X0.250000X-0.237500X0*%
%ADD32RoundRect,0.237500X-0.300000X-0.237500X0.300000X-0.237500X0.300000X0.237500X-0.300000X0.237500X0*%
%ADD33RoundRect,0.250000X-0.325000X-0.450000X0.325000X-0.450000X0.325000X0.450000X-0.325000X0.450000X0*%
%ADD34R,1.800000X1.350000*%
%ADD35RoundRect,0.062500X-0.337500X-0.062500X0.337500X-0.062500X0.337500X0.062500X-0.337500X0.062500X0*%
%ADD36RoundRect,0.062500X-0.062500X-0.337500X0.062500X-0.337500X0.062500X0.337500X-0.062500X0.337500X0*%
%ADD37R,3.350000X3.350000*%
%ADD38R,1.000000X1.000000*%
%ADD39R,1.500000X2.000000*%
%ADD40R,3.800000X2.000000*%
%ADD41RoundRect,0.250000X0.325000X0.450000X-0.325000X0.450000X-0.325000X-0.450000X0.325000X-0.450000X0*%
%ADD42R,0.400000X1.800000*%
%ADD43R,1.800000X0.400000*%
%ADD44R,1.450000X1.450000*%
%ADD45R,0.800000X0.400000*%
%ADD46R,1.700000X1.700000*%
%ADD47C,2.800000*%
%ADD48R,0.700000X1.700000*%
%ADD49FreePoly0,270.000000*%
%ADD50R,0.850000X1.600000*%
%ADD51R,1.350000X0.400000*%
%ADD52O,1.550000X0.890000*%
%ADD53R,1.550000X1.200000*%
%ADD54O,0.950000X1.250000*%
%ADD55R,1.550000X1.500000*%
%ADD56O,1.700000X1.700000*%
G04 APERTURE END LIST*
D10*
X134503809Y-116374523D02*
X134503809Y-116981666D01*
X134463333Y-117103095D01*
X134382380Y-117184047D01*
X134260952Y-117224523D01*
X134180000Y-117224523D01*
X135313333Y-117224523D02*
X134908571Y-117224523D01*
X134908571Y-116374523D01*
X136082380Y-117143571D02*
X136041904Y-117184047D01*
X135920476Y-117224523D01*
X135839523Y-117224523D01*
X135718095Y-117184047D01*
X135637142Y-117103095D01*
X135596666Y-117022142D01*
X135556190Y-116860238D01*
X135556190Y-116738809D01*
X135596666Y-116576904D01*
X135637142Y-116495952D01*
X135718095Y-116415000D01*
X135839523Y-116374523D01*
X135920476Y-116374523D01*
X136041904Y-116415000D01*
X136082380Y-116455476D01*
X136689523Y-116374523D02*
X136689523Y-116981666D01*
X136649047Y-117103095D01*
X136568095Y-117184047D01*
X136446666Y-117224523D01*
X136365714Y-117224523D01*
X137499047Y-117224523D02*
X137094285Y-117224523D01*
X137094285Y-116374523D01*
X138268095Y-117143571D02*
X138227619Y-117184047D01*
X138106190Y-117224523D01*
X138025238Y-117224523D01*
X137903809Y-117184047D01*
X137822857Y-117103095D01*
X137782380Y-117022142D01*
X137741904Y-116860238D01*
X137741904Y-116738809D01*
X137782380Y-116576904D01*
X137822857Y-116495952D01*
X137903809Y-116415000D01*
X138025238Y-116374523D01*
X138106190Y-116374523D01*
X138227619Y-116415000D01*
X138268095Y-116455476D01*
X138875238Y-116374523D02*
X138875238Y-116981666D01*
X138834761Y-117103095D01*
X138753809Y-117184047D01*
X138632380Y-117224523D01*
X138551428Y-117224523D01*
X139684761Y-117224523D02*
X139280000Y-117224523D01*
X139280000Y-116374523D01*
X140453809Y-117143571D02*
X140413333Y-117184047D01*
X140291904Y-117224523D01*
X140210952Y-117224523D01*
X140089523Y-117184047D01*
X140008571Y-117103095D01*
X139968095Y-117022142D01*
X139927619Y-116860238D01*
X139927619Y-116738809D01*
X139968095Y-116576904D01*
X140008571Y-116495952D01*
X140089523Y-116415000D01*
X140210952Y-116374523D01*
X140291904Y-116374523D01*
X140413333Y-116415000D01*
X140453809Y-116455476D01*
X141060952Y-116374523D02*
X141060952Y-116981666D01*
X141020476Y-117103095D01*
X140939523Y-117184047D01*
X140818095Y-117224523D01*
X140737142Y-117224523D01*
X141870476Y-117224523D02*
X141465714Y-117224523D01*
X141465714Y-116374523D01*
X142639523Y-117143571D02*
X142599047Y-117184047D01*
X142477619Y-117224523D01*
X142396666Y-117224523D01*
X142275238Y-117184047D01*
X142194285Y-117103095D01*
X142153809Y-117022142D01*
X142113333Y-116860238D01*
X142113333Y-116738809D01*
X142153809Y-116576904D01*
X142194285Y-116495952D01*
X142275238Y-116415000D01*
X142396666Y-116374523D01*
X142477619Y-116374523D01*
X142599047Y-116415000D01*
X142639523Y-116455476D01*
D11*
X113428571Y-117365428D02*
X113228571Y-117079714D01*
X113085714Y-117365428D02*
X113085714Y-116765428D01*
X113314285Y-116765428D01*
X113371428Y-116794000D01*
X113400000Y-116822571D01*
X113428571Y-116879714D01*
X113428571Y-116965428D01*
X113400000Y-117022571D01*
X113371428Y-117051142D01*
X113314285Y-117079714D01*
X113085714Y-117079714D01*
X113685714Y-117051142D02*
X113885714Y-117051142D01*
X113971428Y-117365428D02*
X113685714Y-117365428D01*
X113685714Y-116765428D01*
X113971428Y-116765428D01*
X114200000Y-117336857D02*
X114285714Y-117365428D01*
X114428571Y-117365428D01*
X114485714Y-117336857D01*
X114514285Y-117308285D01*
X114542857Y-117251142D01*
X114542857Y-117194000D01*
X114514285Y-117136857D01*
X114485714Y-117108285D01*
X114428571Y-117079714D01*
X114314285Y-117051142D01*
X114257142Y-117022571D01*
X114228571Y-116994000D01*
X114200000Y-116936857D01*
X114200000Y-116879714D01*
X114228571Y-116822571D01*
X114257142Y-116794000D01*
X114314285Y-116765428D01*
X114457142Y-116765428D01*
X114542857Y-116794000D01*
X114800000Y-117051142D02*
X115000000Y-117051142D01*
X115085714Y-117365428D02*
X114800000Y-117365428D01*
X114800000Y-116765428D01*
X115085714Y-116765428D01*
X115257142Y-116765428D02*
X115600000Y-116765428D01*
X115428571Y-117365428D02*
X115428571Y-116765428D01*
X113285714Y-99525142D02*
X113085714Y-99525142D01*
X113085714Y-99839428D02*
X113085714Y-99239428D01*
X113371428Y-99239428D01*
X113885714Y-99839428D02*
X113600000Y-99839428D01*
X113600000Y-99239428D01*
X114057142Y-99668000D02*
X114342857Y-99668000D01*
X114000000Y-99839428D02*
X114200000Y-99239428D01*
X114400000Y-99839428D01*
X114571428Y-99810857D02*
X114657142Y-99839428D01*
X114800000Y-99839428D01*
X114857142Y-99810857D01*
X114885714Y-99782285D01*
X114914285Y-99725142D01*
X114914285Y-99668000D01*
X114885714Y-99610857D01*
X114857142Y-99582285D01*
X114800000Y-99553714D01*
X114685714Y-99525142D01*
X114628571Y-99496571D01*
X114600000Y-99468000D01*
X114571428Y-99410857D01*
X114571428Y-99353714D01*
X114600000Y-99296571D01*
X114628571Y-99268000D01*
X114685714Y-99239428D01*
X114828571Y-99239428D01*
X114914285Y-99268000D01*
X115171428Y-99839428D02*
X115171428Y-99239428D01*
X115171428Y-99525142D02*
X115514285Y-99525142D01*
X115514285Y-99839428D02*
X115514285Y-99239428D01*
D12*
X173180489Y-116332696D02*
X173497868Y-116110531D01*
X173180489Y-115951841D02*
X173846985Y-115951841D01*
X173846985Y-116205745D01*
X173815248Y-116269220D01*
X173783510Y-116300958D01*
X173720034Y-116332696D01*
X173624820Y-116332696D01*
X173561344Y-116300958D01*
X173529606Y-116269220D01*
X173497868Y-116205745D01*
X173497868Y-115951841D01*
X173846985Y-116554862D02*
X173180489Y-116999192D01*
X173846985Y-116999192D02*
X173180489Y-116554862D01*
X173180489Y-117253095D02*
X173846985Y-117253095D01*
X173846985Y-117411785D01*
X173815248Y-117506999D01*
X173751772Y-117570474D01*
X173688296Y-117602212D01*
X173561344Y-117633950D01*
X173466131Y-117633950D01*
X173339179Y-117602212D01*
X173275703Y-117570474D01*
X173212227Y-117506999D01*
X173180489Y-117411785D01*
X173180489Y-117253095D01*
D13*
X153916404Y-97090165D02*
X154408148Y-97090165D01*
X154618896Y-97862905D02*
X153916404Y-97862905D01*
X153916404Y-96387673D01*
X154618896Y-96387673D01*
X155180889Y-97792656D02*
X155391636Y-97862905D01*
X155742882Y-97862905D01*
X155883380Y-97792656D01*
X155953630Y-97722407D01*
X156023879Y-97581909D01*
X156023879Y-97441411D01*
X155953630Y-97300912D01*
X155883380Y-97230663D01*
X155742882Y-97160414D01*
X155461886Y-97090165D01*
X155321387Y-97019916D01*
X155251138Y-96949667D01*
X155180889Y-96809168D01*
X155180889Y-96668670D01*
X155251138Y-96528172D01*
X155321387Y-96457923D01*
X155461886Y-96387673D01*
X155813131Y-96387673D01*
X156023879Y-96457923D01*
X156656121Y-97862905D02*
X156656121Y-96387673D01*
X157218114Y-96387673D01*
X157358612Y-96457923D01*
X157428862Y-96528172D01*
X157499111Y-96668670D01*
X157499111Y-96879417D01*
X157428862Y-97019916D01*
X157358612Y-97090165D01*
X157218114Y-97160414D01*
X156656121Y-97160414D01*
X157990855Y-96387673D02*
X158904094Y-96387673D01*
X158412350Y-96949667D01*
X158623097Y-96949667D01*
X158763595Y-97019916D01*
X158833844Y-97090165D01*
X158904094Y-97230663D01*
X158904094Y-97581909D01*
X158833844Y-97722407D01*
X158763595Y-97792656D01*
X158623097Y-97862905D01*
X158201602Y-97862905D01*
X158061104Y-97792656D01*
X157990855Y-97722407D01*
X159466087Y-96528172D02*
X159536336Y-96457923D01*
X159676834Y-96387673D01*
X160028080Y-96387673D01*
X160168578Y-96457923D01*
X160238827Y-96528172D01*
X160309076Y-96668670D01*
X160309076Y-96809168D01*
X160238827Y-97019916D01*
X159395838Y-97862905D01*
X160309076Y-97862905D01*
X160941319Y-97300912D02*
X162065305Y-97300912D01*
X163610786Y-97722407D02*
X163540537Y-97792656D01*
X163329790Y-97862905D01*
X163189291Y-97862905D01*
X162978544Y-97792656D01*
X162838046Y-97652158D01*
X162767796Y-97511660D01*
X162697547Y-97230663D01*
X162697547Y-97019916D01*
X162767796Y-96738919D01*
X162838046Y-96598421D01*
X162978544Y-96457923D01*
X163189291Y-96387673D01*
X163329790Y-96387673D01*
X163540537Y-96457923D01*
X163610786Y-96528172D01*
X164102530Y-96387673D02*
X165015769Y-96387673D01*
X164524025Y-96949667D01*
X164734772Y-96949667D01*
X164875271Y-97019916D01*
X164945520Y-97090165D01*
X165015769Y-97230663D01*
X165015769Y-97581909D01*
X164945520Y-97722407D01*
X164875271Y-97792656D01*
X164734772Y-97862905D01*
X164313278Y-97862905D01*
X164172779Y-97792656D01*
X164102530Y-97722407D01*
X166771998Y-96387673D02*
X166771998Y-97581909D01*
X166842247Y-97722407D01*
X166912496Y-97792656D01*
X167052994Y-97862905D01*
X167333991Y-97862905D01*
X167474489Y-97792656D01*
X167544738Y-97722407D01*
X167614987Y-97581909D01*
X167614987Y-96387673D01*
X168176980Y-96387673D02*
X168528226Y-97862905D01*
X168809223Y-96809168D01*
X169090219Y-97862905D01*
X169441465Y-96387673D01*
X170495202Y-97090165D02*
X170705950Y-97160414D01*
X170776199Y-97230663D01*
X170846448Y-97371161D01*
X170846448Y-97581909D01*
X170776199Y-97722407D01*
X170705950Y-97792656D01*
X170565451Y-97862905D01*
X170003458Y-97862905D01*
X170003458Y-96387673D01*
X170495202Y-96387673D01*
X170635700Y-96457923D01*
X170705950Y-96528172D01*
X170776199Y-96668670D01*
X170776199Y-96809168D01*
X170705950Y-96949667D01*
X170635700Y-97019916D01*
X170495202Y-97090165D01*
X170003458Y-97090165D01*
X172462178Y-96879417D02*
X172813424Y-97862905D01*
X173164670Y-96879417D01*
X174499403Y-97862905D02*
X173656414Y-97862905D01*
X174077908Y-97862905D02*
X174077908Y-96387673D01*
X173937410Y-96598421D01*
X173796912Y-96738919D01*
X173656414Y-96809168D01*
X175131646Y-97722407D02*
X175201895Y-97792656D01*
X175131646Y-97862905D01*
X175061396Y-97792656D01*
X175131646Y-97722407D01*
X175131646Y-97862905D01*
X176115134Y-96387673D02*
X176255632Y-96387673D01*
X176396130Y-96457923D01*
X176466379Y-96528172D01*
X176536628Y-96668670D01*
X176606878Y-96949667D01*
X176606878Y-97300912D01*
X176536628Y-97581909D01*
X176466379Y-97722407D01*
X176396130Y-97792656D01*
X176255632Y-97862905D01*
X176115134Y-97862905D01*
X175974635Y-97792656D01*
X175904386Y-97722407D01*
X175834137Y-97581909D01*
X175763888Y-97300912D01*
X175763888Y-96949667D01*
X175834137Y-96668670D01*
X175904386Y-96528172D01*
X175974635Y-96457923D01*
X176115134Y-96387673D01*
D14*
X176438560Y-92955630D02*
X176478232Y-92876285D01*
X176478232Y-92757268D01*
X176438560Y-92638251D01*
X176359215Y-92558906D01*
X176279870Y-92519233D01*
X176121180Y-92479561D01*
X176002163Y-92479561D01*
X175843474Y-92519233D01*
X175764129Y-92558906D01*
X175684784Y-92638251D01*
X175645112Y-92757268D01*
X175645112Y-92836612D01*
X175684784Y-92955630D01*
X175724457Y-92995302D01*
X176002163Y-92995302D01*
X176002163Y-92836612D01*
X175645112Y-93352353D02*
X176478232Y-93352353D01*
X175645112Y-93828422D01*
X176478232Y-93828422D01*
X175645112Y-94225146D02*
X176478232Y-94225146D01*
X176478232Y-94423508D01*
X176438560Y-94542525D01*
X176359215Y-94621870D01*
X176279870Y-94661542D01*
X176121180Y-94701214D01*
X176002163Y-94701214D01*
X175843474Y-94661542D01*
X175764129Y-94621870D01*
X175684784Y-94542525D01*
X175645112Y-94423508D01*
X175645112Y-94225146D01*
X168025112Y-112341684D02*
X168858232Y-112341684D01*
X168858232Y-112897097D02*
X168858232Y-113055787D01*
X168818560Y-113135131D01*
X168739215Y-113214476D01*
X168580525Y-113254148D01*
X168302819Y-113254148D01*
X168144129Y-113214476D01*
X168064784Y-113135131D01*
X168025112Y-113055787D01*
X168025112Y-112897097D01*
X168064784Y-112817752D01*
X168144129Y-112738408D01*
X168302819Y-112698735D01*
X168580525Y-112698735D01*
X168739215Y-112738408D01*
X168818560Y-112817752D01*
X168858232Y-112897097D01*
X168025112Y-114047596D02*
X168025112Y-113571528D01*
X168025112Y-113809562D02*
X168858232Y-113809562D01*
X168739215Y-113730217D01*
X168659870Y-113650872D01*
X168620198Y-113571528D01*
X168025112Y-114444320D02*
X168025112Y-114603009D01*
X168064784Y-114682354D01*
X168104457Y-114722027D01*
X168223474Y-114801371D01*
X168382163Y-114841044D01*
X168699542Y-114841044D01*
X168778887Y-114801371D01*
X168818560Y-114761699D01*
X168858232Y-114682354D01*
X168858232Y-114523665D01*
X168818560Y-114444320D01*
X168778887Y-114404648D01*
X168699542Y-114364975D01*
X168501180Y-114364975D01*
X168421836Y-114404648D01*
X168382163Y-114444320D01*
X168342491Y-114523665D01*
X168342491Y-114682354D01*
X168382163Y-114761699D01*
X168421836Y-114801371D01*
X168501180Y-114841044D01*
X168897904Y-115793181D02*
X167826750Y-115079078D01*
X168025112Y-116070888D02*
X168858232Y-116070888D01*
X168858232Y-116269249D01*
X168818560Y-116388267D01*
X168739215Y-116467611D01*
X168659870Y-116507284D01*
X168501180Y-116546956D01*
X168382163Y-116546956D01*
X168223474Y-116507284D01*
X168144129Y-116467611D01*
X168064784Y-116388267D01*
X168025112Y-116269249D01*
X168025112Y-116070888D01*
X168342491Y-116904008D02*
X168342491Y-117538766D01*
X168025112Y-117221387D02*
X168659870Y-117221387D01*
X155325112Y-111865615D02*
X156158232Y-111865615D01*
X156158232Y-112421028D02*
X156158232Y-112579718D01*
X156118560Y-112659063D01*
X156039215Y-112738408D01*
X155880525Y-112778080D01*
X155602819Y-112778080D01*
X155444129Y-112738408D01*
X155364784Y-112659063D01*
X155325112Y-112579718D01*
X155325112Y-112421028D01*
X155364784Y-112341684D01*
X155444129Y-112262339D01*
X155602819Y-112222667D01*
X155880525Y-112222667D01*
X156039215Y-112262339D01*
X156118560Y-112341684D01*
X156158232Y-112421028D01*
X156158232Y-113492183D02*
X156158232Y-113333493D01*
X156118560Y-113254148D01*
X156078887Y-113214476D01*
X155959870Y-113135131D01*
X155801180Y-113095459D01*
X155483801Y-113095459D01*
X155404457Y-113135131D01*
X155364784Y-113174804D01*
X155325112Y-113254148D01*
X155325112Y-113412838D01*
X155364784Y-113492183D01*
X155404457Y-113531855D01*
X155483801Y-113571528D01*
X155682163Y-113571528D01*
X155761508Y-113531855D01*
X155801180Y-113492183D01*
X155840853Y-113412838D01*
X155840853Y-113254148D01*
X155801180Y-113174804D01*
X155761508Y-113135131D01*
X155682163Y-113095459D01*
X156197904Y-114523665D02*
X155126750Y-113809562D01*
X155364784Y-114761699D02*
X155325112Y-114880716D01*
X155325112Y-115079078D01*
X155364784Y-115158423D01*
X155404457Y-115198095D01*
X155483801Y-115237768D01*
X155563146Y-115237768D01*
X155642491Y-115198095D01*
X155682163Y-115158423D01*
X155721836Y-115079078D01*
X155761508Y-114920388D01*
X155801180Y-114841044D01*
X155840853Y-114801371D01*
X155920198Y-114761699D01*
X155999542Y-114761699D01*
X156078887Y-114801371D01*
X156118560Y-114841044D01*
X156158232Y-114920388D01*
X156158232Y-115118750D01*
X156118560Y-115237768D01*
X155404457Y-116070888D02*
X155364784Y-116031215D01*
X155325112Y-115912198D01*
X155325112Y-115832853D01*
X155364784Y-115713836D01*
X155444129Y-115634491D01*
X155523474Y-115594819D01*
X155682163Y-115555147D01*
X155801180Y-115555147D01*
X155959870Y-115594819D01*
X156039215Y-115634491D01*
X156118560Y-115713836D01*
X156158232Y-115832853D01*
X156158232Y-115912198D01*
X156118560Y-116031215D01*
X156078887Y-116070888D01*
X155325112Y-116824663D02*
X155325112Y-116427939D01*
X156158232Y-116427939D01*
X155325112Y-117102369D02*
X156158232Y-117102369D01*
X155325112Y-117578438D02*
X155801180Y-117221387D01*
X156158232Y-117578438D02*
X155682163Y-117102369D01*
D12*
X176355248Y-116237482D02*
X176386985Y-116174007D01*
X176386985Y-116078793D01*
X176355248Y-115983579D01*
X176291772Y-115920103D01*
X176228296Y-115888366D01*
X176101344Y-115856628D01*
X176006131Y-115856628D01*
X175879179Y-115888366D01*
X175815703Y-115920103D01*
X175752227Y-115983579D01*
X175720489Y-116078793D01*
X175720489Y-116142269D01*
X175752227Y-116237482D01*
X175783965Y-116269220D01*
X176006131Y-116269220D01*
X176006131Y-116142269D01*
X175720489Y-116554862D02*
X176386985Y-116554862D01*
X175720489Y-116935716D01*
X176386985Y-116935716D01*
X175720489Y-117253095D02*
X176386985Y-117253095D01*
X176386985Y-117411785D01*
X176355248Y-117506999D01*
X176291772Y-117570474D01*
X176228296Y-117602212D01*
X176101344Y-117633950D01*
X176006131Y-117633950D01*
X175879179Y-117602212D01*
X175815703Y-117570474D01*
X175752227Y-117506999D01*
X175720489Y-117411785D01*
X175720489Y-117253095D01*
D14*
X173105112Y-92995302D02*
X173501836Y-92717595D01*
X173105112Y-92519233D02*
X173938232Y-92519233D01*
X173938232Y-92836612D01*
X173898560Y-92915957D01*
X173858887Y-92955630D01*
X173779542Y-92995302D01*
X173660525Y-92995302D01*
X173581180Y-92955630D01*
X173541508Y-92915957D01*
X173501836Y-92836612D01*
X173501836Y-92519233D01*
X173144784Y-93312681D02*
X173105112Y-93431698D01*
X173105112Y-93630060D01*
X173144784Y-93709405D01*
X173184457Y-93749077D01*
X173263801Y-93788750D01*
X173343146Y-93788750D01*
X173422491Y-93749077D01*
X173462163Y-93709405D01*
X173501836Y-93630060D01*
X173541508Y-93471371D01*
X173581180Y-93392026D01*
X173620853Y-93352353D01*
X173700198Y-93312681D01*
X173779542Y-93312681D01*
X173858887Y-93352353D01*
X173898560Y-93392026D01*
X173938232Y-93471371D01*
X173938232Y-93669732D01*
X173898560Y-93788750D01*
X173938232Y-94026784D02*
X173938232Y-94502852D01*
X173105112Y-94264818D02*
X173938232Y-94264818D01*
X162945112Y-111786270D02*
X163778232Y-111786270D01*
X163778232Y-112341684D02*
X163778232Y-112500373D01*
X163738560Y-112579718D01*
X163659215Y-112659063D01*
X163500525Y-112698735D01*
X163222819Y-112698735D01*
X163064129Y-112659063D01*
X162984784Y-112579718D01*
X162945112Y-112500373D01*
X162945112Y-112341684D01*
X162984784Y-112262339D01*
X163064129Y-112182994D01*
X163222819Y-112143322D01*
X163500525Y-112143322D01*
X163659215Y-112182994D01*
X163738560Y-112262339D01*
X163778232Y-112341684D01*
X162945112Y-113095459D02*
X162945112Y-113254148D01*
X162984784Y-113333493D01*
X163024457Y-113373166D01*
X163143474Y-113452510D01*
X163302163Y-113492183D01*
X163619542Y-113492183D01*
X163698887Y-113452510D01*
X163738560Y-113412838D01*
X163778232Y-113333493D01*
X163778232Y-113174804D01*
X163738560Y-113095459D01*
X163698887Y-113055787D01*
X163619542Y-113016114D01*
X163421180Y-113016114D01*
X163341836Y-113055787D01*
X163302163Y-113095459D01*
X163262491Y-113174804D01*
X163262491Y-113333493D01*
X163302163Y-113412838D01*
X163341836Y-113452510D01*
X163421180Y-113492183D01*
X163817904Y-114444320D02*
X162746750Y-113730217D01*
X163381508Y-114999733D02*
X163341836Y-115118750D01*
X163302163Y-115158423D01*
X163222819Y-115198095D01*
X163103801Y-115198095D01*
X163024457Y-115158423D01*
X162984784Y-115118750D01*
X162945112Y-115039406D01*
X162945112Y-114722027D01*
X163778232Y-114722027D01*
X163778232Y-114999733D01*
X163738560Y-115079078D01*
X163698887Y-115118750D01*
X163619542Y-115158423D01*
X163540198Y-115158423D01*
X163460853Y-115118750D01*
X163421180Y-115079078D01*
X163381508Y-114999733D01*
X163381508Y-114722027D01*
X163778232Y-115713836D02*
X163778232Y-115872526D01*
X163738560Y-115951870D01*
X163659215Y-116031215D01*
X163500525Y-116070888D01*
X163222819Y-116070888D01*
X163064129Y-116031215D01*
X162984784Y-115951870D01*
X162945112Y-115872526D01*
X162945112Y-115713836D01*
X162984784Y-115634491D01*
X163064129Y-115555147D01*
X163222819Y-115515474D01*
X163500525Y-115515474D01*
X163659215Y-115555147D01*
X163738560Y-115634491D01*
X163778232Y-115713836D01*
X163778232Y-116586628D02*
X163778232Y-116745318D01*
X163738560Y-116824663D01*
X163659215Y-116904008D01*
X163500525Y-116943680D01*
X163222819Y-116943680D01*
X163064129Y-116904008D01*
X162984784Y-116824663D01*
X162945112Y-116745318D01*
X162945112Y-116586628D01*
X162984784Y-116507284D01*
X163064129Y-116427939D01*
X163222819Y-116388267D01*
X163500525Y-116388267D01*
X163659215Y-116427939D01*
X163738560Y-116507284D01*
X163778232Y-116586628D01*
X163778232Y-117181714D02*
X163778232Y-117657783D01*
X162945112Y-117419748D02*
X163778232Y-117419748D01*
X153618232Y-92439889D02*
X153618232Y-92955630D01*
X153300853Y-92677923D01*
X153300853Y-92796940D01*
X153261180Y-92876285D01*
X153221508Y-92915957D01*
X153142163Y-92955630D01*
X152943801Y-92955630D01*
X152864457Y-92915957D01*
X152824784Y-92876285D01*
X152785112Y-92796940D01*
X152785112Y-92558906D01*
X152824784Y-92479561D01*
X152864457Y-92439889D01*
X153618232Y-93193664D02*
X152785112Y-93471371D01*
X153618232Y-93749077D01*
X153618232Y-93947439D02*
X153618232Y-94463180D01*
X153300853Y-94185473D01*
X153300853Y-94304491D01*
X153261180Y-94383835D01*
X153221508Y-94423508D01*
X153142163Y-94463180D01*
X152943801Y-94463180D01*
X152864457Y-94423508D01*
X152824784Y-94383835D01*
X152785112Y-94304491D01*
X152785112Y-94066456D01*
X152824784Y-93987112D01*
X152864457Y-93947439D01*
D15*
X154090722Y-99327111D02*
X154005571Y-99369686D01*
X153835270Y-99369686D01*
X153750120Y-99327111D01*
X153707544Y-99241961D01*
X153707544Y-98901359D01*
X153750120Y-98816208D01*
X153835270Y-98773633D01*
X154005571Y-98773633D01*
X154090722Y-98816208D01*
X154133297Y-98901359D01*
X154133297Y-98986509D01*
X153707544Y-99071660D01*
X154431324Y-98773633D02*
X154644200Y-99369686D01*
X154857076Y-98773633D01*
X155197678Y-99369686D02*
X155197678Y-98773633D01*
X155197678Y-98475606D02*
X155155103Y-98518182D01*
X155197678Y-98560757D01*
X155240253Y-98518182D01*
X155197678Y-98475606D01*
X155197678Y-98560757D01*
X155751156Y-99369686D02*
X155666005Y-99327111D01*
X155623430Y-99241961D01*
X155623430Y-98475606D01*
X156049183Y-99327111D02*
X156134333Y-99369686D01*
X156304634Y-99369686D01*
X156389784Y-99327111D01*
X156432360Y-99241961D01*
X156432360Y-99199385D01*
X156389784Y-99114235D01*
X156304634Y-99071660D01*
X156176908Y-99071660D01*
X156091758Y-99029084D01*
X156049183Y-98943934D01*
X156049183Y-98901359D01*
X156091758Y-98816208D01*
X156176908Y-98773633D01*
X156304634Y-98773633D01*
X156389784Y-98816208D01*
X157198714Y-99327111D02*
X157113564Y-99369686D01*
X156943263Y-99369686D01*
X156858112Y-99327111D01*
X156815537Y-99284536D01*
X156772962Y-99199385D01*
X156772962Y-98943934D01*
X156815537Y-98858783D01*
X156858112Y-98816208D01*
X156943263Y-98773633D01*
X157113564Y-98773633D01*
X157198714Y-98816208D01*
X157581891Y-99369686D02*
X157581891Y-98773633D01*
X157581891Y-98475606D02*
X157539316Y-98518182D01*
X157581891Y-98560757D01*
X157624466Y-98518182D01*
X157581891Y-98475606D01*
X157581891Y-98560757D01*
X158348245Y-99327111D02*
X158263095Y-99369686D01*
X158092794Y-99369686D01*
X158007644Y-99327111D01*
X157965068Y-99241961D01*
X157965068Y-98901359D01*
X158007644Y-98816208D01*
X158092794Y-98773633D01*
X158263095Y-98773633D01*
X158348245Y-98816208D01*
X158390821Y-98901359D01*
X158390821Y-98986509D01*
X157965068Y-99071660D01*
X158773998Y-98773633D02*
X158773998Y-99369686D01*
X158773998Y-98858783D02*
X158816573Y-98816208D01*
X158901724Y-98773633D01*
X159029449Y-98773633D01*
X159114600Y-98816208D01*
X159157175Y-98901359D01*
X159157175Y-99369686D01*
X159455202Y-98773633D02*
X159795804Y-98773633D01*
X159582927Y-98475606D02*
X159582927Y-99241961D01*
X159625503Y-99327111D01*
X159710653Y-99369686D01*
X159795804Y-99369686D01*
X160093830Y-99369686D02*
X160093830Y-98773633D01*
X160093830Y-98943934D02*
X160136405Y-98858783D01*
X160178981Y-98816208D01*
X160264131Y-98773633D01*
X160349282Y-98773633D01*
X160987910Y-99327111D02*
X160902760Y-99369686D01*
X160732459Y-99369686D01*
X160647308Y-99327111D01*
X160604733Y-99241961D01*
X160604733Y-98901359D01*
X160647308Y-98816208D01*
X160732459Y-98773633D01*
X160902760Y-98773633D01*
X160987910Y-98816208D01*
X161030485Y-98901359D01*
X161030485Y-98986509D01*
X160604733Y-99071660D01*
X161371087Y-99327111D02*
X161456238Y-99369686D01*
X161626539Y-99369686D01*
X161711689Y-99327111D01*
X161754264Y-99241961D01*
X161754264Y-99199385D01*
X161711689Y-99114235D01*
X161626539Y-99071660D01*
X161498813Y-99071660D01*
X161413663Y-99029084D01*
X161371087Y-98943934D01*
X161371087Y-98901359D01*
X161413663Y-98816208D01*
X161498813Y-98773633D01*
X161626539Y-98773633D01*
X161711689Y-98816208D01*
X162094866Y-99327111D02*
X162180017Y-99369686D01*
X162350318Y-99369686D01*
X162435468Y-99327111D01*
X162478044Y-99241961D01*
X162478044Y-99199385D01*
X162435468Y-99114235D01*
X162350318Y-99071660D01*
X162222592Y-99071660D01*
X162137442Y-99029084D01*
X162094866Y-98943934D01*
X162094866Y-98901359D01*
X162137442Y-98816208D01*
X162222592Y-98773633D01*
X162350318Y-98773633D01*
X162435468Y-98816208D01*
X163499849Y-98433031D02*
X162733495Y-99582562D01*
X163797876Y-98901359D02*
X164095903Y-98901359D01*
X164223628Y-99369686D02*
X163797876Y-99369686D01*
X163797876Y-98475606D01*
X164223628Y-98475606D01*
X164564230Y-99327111D02*
X164691956Y-99369686D01*
X164904832Y-99369686D01*
X164989983Y-99327111D01*
X165032558Y-99284536D01*
X165075133Y-99199385D01*
X165075133Y-99114235D01*
X165032558Y-99029084D01*
X164989983Y-98986509D01*
X164904832Y-98943934D01*
X164734531Y-98901359D01*
X164649381Y-98858783D01*
X164606805Y-98816208D01*
X164564230Y-98731058D01*
X164564230Y-98645907D01*
X164606805Y-98560757D01*
X164649381Y-98518182D01*
X164734531Y-98475606D01*
X164947407Y-98475606D01*
X165075133Y-98518182D01*
X165458310Y-99369686D02*
X165458310Y-98475606D01*
X165798912Y-98475606D01*
X165884063Y-98518182D01*
X165926638Y-98560757D01*
X165969213Y-98645907D01*
X165969213Y-98773633D01*
X165926638Y-98858783D01*
X165884063Y-98901359D01*
X165798912Y-98943934D01*
X165458310Y-98943934D01*
X166267240Y-98475606D02*
X166820718Y-98475606D01*
X166522691Y-98816208D01*
X166650417Y-98816208D01*
X166735567Y-98858783D01*
X166778143Y-98901359D01*
X166820718Y-98986509D01*
X166820718Y-99199385D01*
X166778143Y-99284536D01*
X166735567Y-99327111D01*
X166650417Y-99369686D01*
X166394965Y-99369686D01*
X166309815Y-99327111D01*
X166267240Y-99284536D01*
X167161320Y-98560757D02*
X167203895Y-98518182D01*
X167289045Y-98475606D01*
X167501922Y-98475606D01*
X167587072Y-98518182D01*
X167629647Y-98560757D01*
X167672223Y-98645907D01*
X167672223Y-98731058D01*
X167629647Y-98858783D01*
X167118744Y-99369686D01*
X167672223Y-99369686D01*
X168055400Y-99029084D02*
X168736604Y-99029084D01*
X169673259Y-99284536D02*
X169630684Y-99327111D01*
X169502958Y-99369686D01*
X169417807Y-99369686D01*
X169290082Y-99327111D01*
X169204931Y-99241961D01*
X169162356Y-99156810D01*
X169119781Y-98986509D01*
X169119781Y-98858783D01*
X169162356Y-98688482D01*
X169204931Y-98603332D01*
X169290082Y-98518182D01*
X169417807Y-98475606D01*
X169502958Y-98475606D01*
X169630684Y-98518182D01*
X169673259Y-98560757D01*
X169971285Y-98475606D02*
X170524764Y-98475606D01*
X170226737Y-98816208D01*
X170354463Y-98816208D01*
X170439613Y-98858783D01*
X170482188Y-98901359D01*
X170524764Y-98986509D01*
X170524764Y-99199385D01*
X170482188Y-99284536D01*
X170439613Y-99327111D01*
X170354463Y-99369686D01*
X170099011Y-99369686D01*
X170013861Y-99327111D01*
X169971285Y-99284536D01*
X170907941Y-99029084D02*
X171589144Y-99029084D01*
X172014897Y-98475606D02*
X172014897Y-99199385D01*
X172057472Y-99284536D01*
X172100047Y-99327111D01*
X172185198Y-99369686D01*
X172355499Y-99369686D01*
X172440649Y-99327111D01*
X172483224Y-99284536D01*
X172525800Y-99199385D01*
X172525800Y-98475606D01*
X172866402Y-98475606D02*
X173079278Y-99369686D01*
X173249579Y-98731058D01*
X173419880Y-99369686D01*
X173632756Y-98475606D01*
X174271384Y-98901359D02*
X174399110Y-98943934D01*
X174441685Y-98986509D01*
X174484261Y-99071660D01*
X174484261Y-99199385D01*
X174441685Y-99284536D01*
X174399110Y-99327111D01*
X174313960Y-99369686D01*
X173973358Y-99369686D01*
X173973358Y-98475606D01*
X174271384Y-98475606D01*
X174356535Y-98518182D01*
X174399110Y-98560757D01*
X174441685Y-98645907D01*
X174441685Y-98731058D01*
X174399110Y-98816208D01*
X174356535Y-98858783D01*
X174271384Y-98901359D01*
X173973358Y-98901359D01*
D11*
X126805571Y-94222857D02*
X126891285Y-94251428D01*
X127034142Y-94251428D01*
X127091285Y-94222857D01*
X127119857Y-94194285D01*
X127148428Y-94137142D01*
X127148428Y-94080000D01*
X127119857Y-94022857D01*
X127091285Y-93994285D01*
X127034142Y-93965714D01*
X126919857Y-93937142D01*
X126862714Y-93908571D01*
X126834142Y-93880000D01*
X126805571Y-93822857D01*
X126805571Y-93765714D01*
X126834142Y-93708571D01*
X126862714Y-93680000D01*
X126919857Y-93651428D01*
X127062714Y-93651428D01*
X127148428Y-93680000D01*
X127605571Y-93937142D02*
X127405571Y-93937142D01*
X127405571Y-94251428D02*
X127405571Y-93651428D01*
X127691285Y-93651428D01*
X127919857Y-94251428D02*
X127919857Y-93651428D01*
X128062714Y-93651428D01*
X128148428Y-93680000D01*
X128205571Y-93737142D01*
X128234142Y-93794285D01*
X128262714Y-93908571D01*
X128262714Y-93994285D01*
X128234142Y-94108571D01*
X128205571Y-94165714D01*
X128148428Y-94222857D01*
X128062714Y-94251428D01*
X127919857Y-94251428D01*
D14*
X160405112Y-92519233D02*
X161238232Y-92519233D01*
X161238232Y-93074647D02*
X161238232Y-93233336D01*
X161198560Y-93312681D01*
X161119215Y-93392026D01*
X160960525Y-93431698D01*
X160682819Y-93431698D01*
X160524129Y-93392026D01*
X160444784Y-93312681D01*
X160405112Y-93233336D01*
X160405112Y-93074647D01*
X160444784Y-92995302D01*
X160524129Y-92915957D01*
X160682819Y-92876285D01*
X160960525Y-92876285D01*
X161119215Y-92915957D01*
X161198560Y-92995302D01*
X161238232Y-93074647D01*
X161238232Y-93947439D02*
X161238232Y-94026784D01*
X161198560Y-94106129D01*
X161158887Y-94145801D01*
X161079542Y-94185473D01*
X160920853Y-94225146D01*
X160722491Y-94225146D01*
X160563801Y-94185473D01*
X160484457Y-94145801D01*
X160444784Y-94106129D01*
X160405112Y-94026784D01*
X160405112Y-93947439D01*
X160444784Y-93868094D01*
X160484457Y-93828422D01*
X160563801Y-93788750D01*
X160722491Y-93749077D01*
X160920853Y-93749077D01*
X161079542Y-93788750D01*
X161158887Y-93828422D01*
X161198560Y-93868094D01*
X161238232Y-93947439D01*
X165485112Y-92519233D02*
X166318232Y-92519233D01*
X166318232Y-93074647D02*
X166318232Y-93233336D01*
X166278560Y-93312681D01*
X166199215Y-93392026D01*
X166040525Y-93431698D01*
X165762819Y-93431698D01*
X165604129Y-93392026D01*
X165524784Y-93312681D01*
X165485112Y-93233336D01*
X165485112Y-93074647D01*
X165524784Y-92995302D01*
X165604129Y-92915957D01*
X165762819Y-92876285D01*
X166040525Y-92876285D01*
X166199215Y-92915957D01*
X166278560Y-92995302D01*
X166318232Y-93074647D01*
X166238887Y-93749077D02*
X166278560Y-93788750D01*
X166318232Y-93868094D01*
X166318232Y-94066456D01*
X166278560Y-94145801D01*
X166238887Y-94185473D01*
X166159542Y-94225146D01*
X166080198Y-94225146D01*
X165961180Y-94185473D01*
X165485112Y-93709405D01*
X165485112Y-94225146D01*
X150245112Y-111984632D02*
X151078232Y-111984632D01*
X151078232Y-112540046D02*
X151078232Y-112698735D01*
X151038560Y-112778080D01*
X150959215Y-112857425D01*
X150800525Y-112897097D01*
X150522819Y-112897097D01*
X150364129Y-112857425D01*
X150284784Y-112778080D01*
X150245112Y-112698735D01*
X150245112Y-112540046D01*
X150284784Y-112460701D01*
X150364129Y-112381356D01*
X150522819Y-112341684D01*
X150800525Y-112341684D01*
X150959215Y-112381356D01*
X151038560Y-112460701D01*
X151078232Y-112540046D01*
X150800525Y-113611200D02*
X150245112Y-113611200D01*
X151117904Y-113412838D02*
X150522819Y-113214476D01*
X150522819Y-113730217D01*
X151117904Y-114642682D02*
X150046750Y-113928579D01*
X150245112Y-114920388D02*
X151078232Y-114920388D01*
X150483146Y-115198095D01*
X151078232Y-115475802D01*
X150245112Y-115475802D01*
X151078232Y-116031215D02*
X151078232Y-116189905D01*
X151038560Y-116269249D01*
X150959215Y-116348594D01*
X150800525Y-116388267D01*
X150522819Y-116388267D01*
X150364129Y-116348594D01*
X150284784Y-116269249D01*
X150245112Y-116189905D01*
X150245112Y-116031215D01*
X150284784Y-115951870D01*
X150364129Y-115872526D01*
X150522819Y-115832853D01*
X150800525Y-115832853D01*
X150959215Y-115872526D01*
X151038560Y-115951870D01*
X151078232Y-116031215D01*
X150284784Y-116705646D02*
X150245112Y-116824663D01*
X150245112Y-117023025D01*
X150284784Y-117102369D01*
X150324457Y-117142042D01*
X150403801Y-117181714D01*
X150483146Y-117181714D01*
X150562491Y-117142042D01*
X150602163Y-117102369D01*
X150641836Y-117023025D01*
X150681508Y-116864335D01*
X150721180Y-116784990D01*
X150760853Y-116745318D01*
X150840198Y-116705646D01*
X150919542Y-116705646D01*
X150998887Y-116745318D01*
X151038560Y-116784990D01*
X151078232Y-116864335D01*
X151078232Y-117062697D01*
X151038560Y-117181714D01*
X150245112Y-117538766D02*
X151078232Y-117538766D01*
X162945112Y-92519233D02*
X163778232Y-92519233D01*
X163778232Y-93074647D02*
X163778232Y-93233336D01*
X163738560Y-93312681D01*
X163659215Y-93392026D01*
X163500525Y-93431698D01*
X163222819Y-93431698D01*
X163064129Y-93392026D01*
X162984784Y-93312681D01*
X162945112Y-93233336D01*
X162945112Y-93074647D01*
X162984784Y-92995302D01*
X163064129Y-92915957D01*
X163222819Y-92876285D01*
X163500525Y-92876285D01*
X163659215Y-92915957D01*
X163738560Y-92995302D01*
X163778232Y-93074647D01*
X162945112Y-94225146D02*
X162945112Y-93749077D01*
X162945112Y-93987112D02*
X163778232Y-93987112D01*
X163659215Y-93907767D01*
X163579870Y-93828422D01*
X163540198Y-93749077D01*
X171358560Y-92955630D02*
X171398232Y-92876285D01*
X171398232Y-92757268D01*
X171358560Y-92638251D01*
X171279215Y-92558906D01*
X171199870Y-92519233D01*
X171041180Y-92479561D01*
X170922163Y-92479561D01*
X170763474Y-92519233D01*
X170684129Y-92558906D01*
X170604784Y-92638251D01*
X170565112Y-92757268D01*
X170565112Y-92836612D01*
X170604784Y-92955630D01*
X170644457Y-92995302D01*
X170922163Y-92995302D01*
X170922163Y-92836612D01*
X170565112Y-93352353D02*
X171398232Y-93352353D01*
X170565112Y-93828422D01*
X171398232Y-93828422D01*
X170565112Y-94225146D02*
X171398232Y-94225146D01*
X171398232Y-94423508D01*
X171358560Y-94542525D01*
X171279215Y-94621870D01*
X171199870Y-94661542D01*
X171041180Y-94701214D01*
X170922163Y-94701214D01*
X170763474Y-94661542D01*
X170684129Y-94621870D01*
X170604784Y-94542525D01*
X170565112Y-94423508D01*
X170565112Y-94225146D01*
D11*
X144219714Y-96953428D02*
X144219714Y-97439142D01*
X144248285Y-97496285D01*
X144276857Y-97524857D01*
X144334000Y-97553428D01*
X144448285Y-97553428D01*
X144505428Y-97524857D01*
X144534000Y-97496285D01*
X144562571Y-97439142D01*
X144562571Y-96953428D01*
X144791142Y-96953428D02*
X144934000Y-97553428D01*
X145048285Y-97124857D01*
X145162571Y-97553428D01*
X145305428Y-96953428D01*
X145734000Y-97239142D02*
X145819714Y-97267714D01*
X145848285Y-97296285D01*
X145876857Y-97353428D01*
X145876857Y-97439142D01*
X145848285Y-97496285D01*
X145819714Y-97524857D01*
X145762571Y-97553428D01*
X145534000Y-97553428D01*
X145534000Y-96953428D01*
X145734000Y-96953428D01*
X145791142Y-96982000D01*
X145819714Y-97010571D01*
X145848285Y-97067714D01*
X145848285Y-97124857D01*
X145819714Y-97182000D01*
X145791142Y-97210571D01*
X145734000Y-97239142D01*
X145534000Y-97239142D01*
D14*
X165485112Y-112341684D02*
X166318232Y-112341684D01*
X166318232Y-112897097D02*
X166318232Y-113055787D01*
X166278560Y-113135131D01*
X166199215Y-113214476D01*
X166040525Y-113254148D01*
X165762819Y-113254148D01*
X165604129Y-113214476D01*
X165524784Y-113135131D01*
X165485112Y-113055787D01*
X165485112Y-112897097D01*
X165524784Y-112817752D01*
X165604129Y-112738408D01*
X165762819Y-112698735D01*
X166040525Y-112698735D01*
X166199215Y-112738408D01*
X166278560Y-112817752D01*
X166318232Y-112897097D01*
X165485112Y-114047596D02*
X165485112Y-113571528D01*
X165485112Y-113809562D02*
X166318232Y-113809562D01*
X166199215Y-113730217D01*
X166119870Y-113650872D01*
X166080198Y-113571528D01*
X165961180Y-114523665D02*
X166000853Y-114444320D01*
X166040525Y-114404648D01*
X166119870Y-114364975D01*
X166159542Y-114364975D01*
X166238887Y-114404648D01*
X166278560Y-114444320D01*
X166318232Y-114523665D01*
X166318232Y-114682354D01*
X166278560Y-114761699D01*
X166238887Y-114801371D01*
X166159542Y-114841044D01*
X166119870Y-114841044D01*
X166040525Y-114801371D01*
X166000853Y-114761699D01*
X165961180Y-114682354D01*
X165961180Y-114523665D01*
X165921508Y-114444320D01*
X165881836Y-114404648D01*
X165802491Y-114364975D01*
X165643801Y-114364975D01*
X165564457Y-114404648D01*
X165524784Y-114444320D01*
X165485112Y-114523665D01*
X165485112Y-114682354D01*
X165524784Y-114761699D01*
X165564457Y-114801371D01*
X165643801Y-114841044D01*
X165802491Y-114841044D01*
X165881836Y-114801371D01*
X165921508Y-114761699D01*
X165961180Y-114682354D01*
X166357904Y-115793181D02*
X165286750Y-115079078D01*
X165485112Y-116070888D02*
X166318232Y-116070888D01*
X166318232Y-116269249D01*
X166278560Y-116388267D01*
X166199215Y-116467611D01*
X166119870Y-116507284D01*
X165961180Y-116546956D01*
X165842163Y-116546956D01*
X165683474Y-116507284D01*
X165604129Y-116467611D01*
X165524784Y-116388267D01*
X165485112Y-116269249D01*
X165485112Y-116070888D01*
X165802491Y-116904008D02*
X165802491Y-117538766D01*
D11*
X122940857Y-97461428D02*
X122940857Y-97947142D01*
X122969428Y-98004285D01*
X122998000Y-98032857D01*
X123055142Y-98061428D01*
X123169428Y-98061428D01*
X123226571Y-98032857D01*
X123255142Y-98004285D01*
X123283714Y-97947142D01*
X123283714Y-97461428D01*
X123540857Y-98032857D02*
X123626571Y-98061428D01*
X123769428Y-98061428D01*
X123826571Y-98032857D01*
X123855142Y-98004285D01*
X123883714Y-97947142D01*
X123883714Y-97890000D01*
X123855142Y-97832857D01*
X123826571Y-97804285D01*
X123769428Y-97775714D01*
X123655142Y-97747142D01*
X123598000Y-97718571D01*
X123569428Y-97690000D01*
X123540857Y-97632857D01*
X123540857Y-97575714D01*
X123569428Y-97518571D01*
X123598000Y-97490000D01*
X123655142Y-97461428D01*
X123798000Y-97461428D01*
X123883714Y-97490000D01*
X124340857Y-97747142D02*
X124426571Y-97775714D01*
X124455142Y-97804285D01*
X124483714Y-97861428D01*
X124483714Y-97947142D01*
X124455142Y-98004285D01*
X124426571Y-98032857D01*
X124369428Y-98061428D01*
X124140857Y-98061428D01*
X124140857Y-97461428D01*
X124340857Y-97461428D01*
X124398000Y-97490000D01*
X124426571Y-97518571D01*
X124455142Y-97575714D01*
X124455142Y-97632857D01*
X124426571Y-97690000D01*
X124398000Y-97718571D01*
X124340857Y-97747142D01*
X124140857Y-97747142D01*
D14*
X157865112Y-113095459D02*
X158698232Y-113095459D01*
X158698232Y-113650872D02*
X158698232Y-113809562D01*
X158658560Y-113888907D01*
X158579215Y-113968251D01*
X158420525Y-114007924D01*
X158142819Y-114007924D01*
X157984129Y-113968251D01*
X157904784Y-113888907D01*
X157865112Y-113809562D01*
X157865112Y-113650872D01*
X157904784Y-113571528D01*
X157984129Y-113492183D01*
X158142819Y-113452510D01*
X158420525Y-113452510D01*
X158579215Y-113492183D01*
X158658560Y-113571528D01*
X158698232Y-113650872D01*
X158698232Y-114285630D02*
X158698232Y-114841044D01*
X157865112Y-114483992D01*
X158737904Y-115753508D02*
X157666750Y-115039406D01*
X157865112Y-116031215D02*
X158698232Y-116031215D01*
X157865112Y-116427939D02*
X158698232Y-116427939D01*
X157865112Y-116904008D01*
X158698232Y-116904008D01*
X158698232Y-117181714D02*
X158698232Y-117657783D01*
X157865112Y-117419748D02*
X158698232Y-117419748D01*
D16*
X171303428Y-116032528D02*
X171303428Y-116409671D01*
X170643428Y-116221100D02*
X171303428Y-116221100D01*
X171303428Y-116566814D02*
X170643428Y-117006814D01*
X171303428Y-117006814D02*
X170643428Y-116566814D01*
X170643428Y-117258242D02*
X171303428Y-117258242D01*
X171303428Y-117415385D01*
X171272000Y-117509671D01*
X171209142Y-117572528D01*
X171146285Y-117603957D01*
X171020571Y-117635385D01*
X170926285Y-117635385D01*
X170800571Y-117603957D01*
X170737714Y-117572528D01*
X170674857Y-117509671D01*
X170643428Y-117415385D01*
X170643428Y-117258242D01*
D14*
X151038560Y-92955630D02*
X151078232Y-92876285D01*
X151078232Y-92757268D01*
X151038560Y-92638251D01*
X150959215Y-92558906D01*
X150879870Y-92519233D01*
X150721180Y-92479561D01*
X150602163Y-92479561D01*
X150443474Y-92519233D01*
X150364129Y-92558906D01*
X150284784Y-92638251D01*
X150245112Y-92757268D01*
X150245112Y-92836612D01*
X150284784Y-92955630D01*
X150324457Y-92995302D01*
X150602163Y-92995302D01*
X150602163Y-92836612D01*
X150245112Y-93352353D02*
X151078232Y-93352353D01*
X150245112Y-93828422D01*
X151078232Y-93828422D01*
X150245112Y-94225146D02*
X151078232Y-94225146D01*
X151078232Y-94423508D01*
X151038560Y-94542525D01*
X150959215Y-94621870D01*
X150879870Y-94661542D01*
X150721180Y-94701214D01*
X150602163Y-94701214D01*
X150443474Y-94661542D01*
X150364129Y-94621870D01*
X150284784Y-94542525D01*
X150245112Y-94423508D01*
X150245112Y-94225146D01*
X156158232Y-92439889D02*
X156158232Y-92955630D01*
X155840853Y-92677923D01*
X155840853Y-92796940D01*
X155801180Y-92876285D01*
X155761508Y-92915957D01*
X155682163Y-92955630D01*
X155483801Y-92955630D01*
X155404457Y-92915957D01*
X155364784Y-92876285D01*
X155325112Y-92796940D01*
X155325112Y-92558906D01*
X155364784Y-92479561D01*
X155404457Y-92439889D01*
X156158232Y-93193664D02*
X155325112Y-93471371D01*
X156158232Y-93749077D01*
X156158232Y-93947439D02*
X156158232Y-94463180D01*
X155840853Y-94185473D01*
X155840853Y-94304491D01*
X155801180Y-94383835D01*
X155761508Y-94423508D01*
X155682163Y-94463180D01*
X155483801Y-94463180D01*
X155404457Y-94423508D01*
X155364784Y-94383835D01*
X155325112Y-94304491D01*
X155325112Y-94066456D01*
X155364784Y-93987112D01*
X155404457Y-93947439D01*
X160405112Y-113373166D02*
X161238232Y-113373166D01*
X161238232Y-113928579D02*
X161238232Y-114087268D01*
X161198560Y-114166613D01*
X161119215Y-114245958D01*
X160960525Y-114285630D01*
X160682819Y-114285630D01*
X160524129Y-114245958D01*
X160444784Y-114166613D01*
X160405112Y-114087268D01*
X160405112Y-113928579D01*
X160444784Y-113849234D01*
X160524129Y-113769889D01*
X160682819Y-113730217D01*
X160960525Y-113730217D01*
X161119215Y-113769889D01*
X161198560Y-113849234D01*
X161238232Y-113928579D01*
X160881180Y-114761699D02*
X160920853Y-114682354D01*
X160960525Y-114642682D01*
X161039870Y-114603009D01*
X161079542Y-114603009D01*
X161158887Y-114642682D01*
X161198560Y-114682354D01*
X161238232Y-114761699D01*
X161238232Y-114920388D01*
X161198560Y-114999733D01*
X161158887Y-115039406D01*
X161079542Y-115079078D01*
X161039870Y-115079078D01*
X160960525Y-115039406D01*
X160920853Y-114999733D01*
X160881180Y-114920388D01*
X160881180Y-114761699D01*
X160841508Y-114682354D01*
X160801836Y-114642682D01*
X160722491Y-114603009D01*
X160563801Y-114603009D01*
X160484457Y-114642682D01*
X160444784Y-114682354D01*
X160405112Y-114761699D01*
X160405112Y-114920388D01*
X160444784Y-114999733D01*
X160484457Y-115039406D01*
X160563801Y-115079078D01*
X160722491Y-115079078D01*
X160801836Y-115039406D01*
X160841508Y-114999733D01*
X160881180Y-114920388D01*
X161277904Y-116031215D02*
X160206750Y-115317112D01*
X160484457Y-116784990D02*
X160444784Y-116745318D01*
X160405112Y-116626301D01*
X160405112Y-116546956D01*
X160444784Y-116427939D01*
X160524129Y-116348594D01*
X160603474Y-116308922D01*
X160762163Y-116269249D01*
X160881180Y-116269249D01*
X161039870Y-116308922D01*
X161119215Y-116348594D01*
X161198560Y-116427939D01*
X161238232Y-116546956D01*
X161238232Y-116626301D01*
X161198560Y-116745318D01*
X161158887Y-116784990D01*
X160444784Y-117102369D02*
X160405112Y-117221387D01*
X160405112Y-117419748D01*
X160444784Y-117499093D01*
X160484457Y-117538766D01*
X160563801Y-117578438D01*
X160643146Y-117578438D01*
X160722491Y-117538766D01*
X160762163Y-117499093D01*
X160801836Y-117419748D01*
X160841508Y-117261059D01*
X160881180Y-117181714D01*
X160920853Y-117142042D01*
X161000198Y-117102369D01*
X161079542Y-117102369D01*
X161158887Y-117142042D01*
X161198560Y-117181714D01*
X161238232Y-117261059D01*
X161238232Y-117459421D01*
X161198560Y-117578438D01*
X168025112Y-92519233D02*
X168858232Y-92519233D01*
X168858232Y-93074647D02*
X168858232Y-93233336D01*
X168818560Y-93312681D01*
X168739215Y-93392026D01*
X168580525Y-93431698D01*
X168302819Y-93431698D01*
X168144129Y-93392026D01*
X168064784Y-93312681D01*
X168025112Y-93233336D01*
X168025112Y-93074647D01*
X168064784Y-92995302D01*
X168144129Y-92915957D01*
X168302819Y-92876285D01*
X168580525Y-92876285D01*
X168739215Y-92915957D01*
X168818560Y-92995302D01*
X168858232Y-93074647D01*
X168858232Y-93709405D02*
X168858232Y-94225146D01*
X168540853Y-93947439D01*
X168540853Y-94066456D01*
X168501180Y-94145801D01*
X168461508Y-94185473D01*
X168382163Y-94225146D01*
X168183801Y-94225146D01*
X168104457Y-94185473D01*
X168064784Y-94145801D01*
X168025112Y-94066456D01*
X168025112Y-93828422D01*
X168064784Y-93749077D01*
X168104457Y-93709405D01*
D11*
X126900000Y-98061428D02*
X126700000Y-97775714D01*
X126557142Y-98061428D02*
X126557142Y-97461428D01*
X126785714Y-97461428D01*
X126842857Y-97490000D01*
X126871428Y-97518571D01*
X126900000Y-97575714D01*
X126900000Y-97661428D01*
X126871428Y-97718571D01*
X126842857Y-97747142D01*
X126785714Y-97775714D01*
X126557142Y-97775714D01*
X127100000Y-97461428D02*
X127500000Y-98061428D01*
X127500000Y-97461428D02*
X127100000Y-98061428D01*
D14*
X148498560Y-92955630D02*
X148538232Y-92876285D01*
X148538232Y-92757268D01*
X148498560Y-92638251D01*
X148419215Y-92558906D01*
X148339870Y-92519233D01*
X148181180Y-92479561D01*
X148062163Y-92479561D01*
X147903474Y-92519233D01*
X147824129Y-92558906D01*
X147744784Y-92638251D01*
X147705112Y-92757268D01*
X147705112Y-92836612D01*
X147744784Y-92955630D01*
X147784457Y-92995302D01*
X148062163Y-92995302D01*
X148062163Y-92836612D01*
X147705112Y-93352353D02*
X148538232Y-93352353D01*
X147705112Y-93828422D01*
X148538232Y-93828422D01*
X147705112Y-94225146D02*
X148538232Y-94225146D01*
X148538232Y-94423508D01*
X148498560Y-94542525D01*
X148419215Y-94621870D01*
X148339870Y-94661542D01*
X148181180Y-94701214D01*
X148062163Y-94701214D01*
X147903474Y-94661542D01*
X147824129Y-94621870D01*
X147744784Y-94542525D01*
X147705112Y-94423508D01*
X147705112Y-94225146D01*
D11*
X125018857Y-97461428D02*
X125361714Y-97461428D01*
X125190285Y-98061428D02*
X125190285Y-97461428D01*
X125504571Y-97461428D02*
X125904571Y-98061428D01*
X125904571Y-97461428D02*
X125504571Y-98061428D01*
X146354857Y-96953428D02*
X146697714Y-96953428D01*
X146526285Y-97553428D02*
X146526285Y-96953428D01*
X146840571Y-96953428D02*
X147240571Y-97553428D01*
X147240571Y-96953428D02*
X146840571Y-97553428D01*
D12*
X178926985Y-116396172D02*
X178926985Y-116078793D01*
X178609606Y-116047055D01*
X178641344Y-116078793D01*
X178673082Y-116142269D01*
X178673082Y-116300958D01*
X178641344Y-116364434D01*
X178609606Y-116396172D01*
X178546131Y-116427910D01*
X178387441Y-116427910D01*
X178323965Y-116396172D01*
X178292227Y-116364434D01*
X178260489Y-116300958D01*
X178260489Y-116142269D01*
X178292227Y-116078793D01*
X178323965Y-116047055D01*
X178926985Y-116618337D02*
X178260489Y-116840503D01*
X178926985Y-117062668D01*
X178926985Y-117411785D02*
X178926985Y-117475261D01*
X178895248Y-117538737D01*
X178863510Y-117570474D01*
X178800034Y-117602212D01*
X178673082Y-117633950D01*
X178514393Y-117633950D01*
X178387441Y-117602212D01*
X178323965Y-117570474D01*
X178292227Y-117538737D01*
X178260489Y-117475261D01*
X178260489Y-117411785D01*
X178292227Y-117348309D01*
X178323965Y-117316571D01*
X178387441Y-117284833D01*
X178514393Y-117253095D01*
X178673082Y-117253095D01*
X178800034Y-117284833D01*
X178863510Y-117316571D01*
X178895248Y-117348309D01*
X178926985Y-117411785D01*
D11*
X127233571Y-94921428D02*
X127347857Y-94921428D01*
X127405000Y-94950000D01*
X127462142Y-95007142D01*
X127490714Y-95121428D01*
X127490714Y-95321428D01*
X127462142Y-95435714D01*
X127405000Y-95492857D01*
X127347857Y-95521428D01*
X127233571Y-95521428D01*
X127176428Y-95492857D01*
X127119285Y-95435714D01*
X127090714Y-95321428D01*
X127090714Y-95121428D01*
X127119285Y-95007142D01*
X127176428Y-94950000D01*
X127233571Y-94921428D01*
X127747857Y-95521428D02*
X127747857Y-94921428D01*
X128090714Y-95521428D02*
X127833571Y-95178571D01*
X128090714Y-94921428D02*
X127747857Y-95264285D01*
X123414142Y-118635428D02*
X123414142Y-118035428D01*
X123642714Y-118035428D01*
X123699857Y-118064000D01*
X123728428Y-118092571D01*
X123757000Y-118149714D01*
X123757000Y-118235428D01*
X123728428Y-118292571D01*
X123699857Y-118321142D01*
X123642714Y-118349714D01*
X123414142Y-118349714D01*
X123957000Y-118035428D02*
X124099857Y-118635428D01*
X124214142Y-118206857D01*
X124328428Y-118635428D01*
X124471285Y-118035428D01*
X125042714Y-118635428D02*
X124842714Y-118349714D01*
X124699857Y-118635428D02*
X124699857Y-118035428D01*
X124928428Y-118035428D01*
X124985571Y-118064000D01*
X125014142Y-118092571D01*
X125042714Y-118149714D01*
X125042714Y-118235428D01*
X125014142Y-118292571D01*
X124985571Y-118321142D01*
X124928428Y-118349714D01*
X124699857Y-118349714D01*
D14*
X152785112Y-111984632D02*
X153618232Y-111984632D01*
X153618232Y-112540046D02*
X153618232Y-112698735D01*
X153578560Y-112778080D01*
X153499215Y-112857425D01*
X153340525Y-112897097D01*
X153062819Y-112897097D01*
X152904129Y-112857425D01*
X152824784Y-112778080D01*
X152785112Y-112698735D01*
X152785112Y-112540046D01*
X152824784Y-112460701D01*
X152904129Y-112381356D01*
X153062819Y-112341684D01*
X153340525Y-112341684D01*
X153499215Y-112381356D01*
X153578560Y-112460701D01*
X153618232Y-112540046D01*
X153618232Y-113650872D02*
X153618232Y-113254148D01*
X153221508Y-113214476D01*
X153261180Y-113254148D01*
X153300853Y-113333493D01*
X153300853Y-113531855D01*
X153261180Y-113611200D01*
X153221508Y-113650872D01*
X153142163Y-113690545D01*
X152943801Y-113690545D01*
X152864457Y-113650872D01*
X152824784Y-113611200D01*
X152785112Y-113531855D01*
X152785112Y-113333493D01*
X152824784Y-113254148D01*
X152864457Y-113214476D01*
X153657904Y-114642682D02*
X152586750Y-113928579D01*
X152785112Y-114920388D02*
X153618232Y-114920388D01*
X153023146Y-115198095D01*
X153618232Y-115475802D01*
X152785112Y-115475802D01*
X152785112Y-115872526D02*
X153618232Y-115872526D01*
X152824784Y-116229577D02*
X152785112Y-116348594D01*
X152785112Y-116546956D01*
X152824784Y-116626301D01*
X152864457Y-116665973D01*
X152943801Y-116705646D01*
X153023146Y-116705646D01*
X153102491Y-116665973D01*
X153142163Y-116626301D01*
X153181836Y-116546956D01*
X153221508Y-116388267D01*
X153261180Y-116308922D01*
X153300853Y-116269249D01*
X153380198Y-116229577D01*
X153459542Y-116229577D01*
X153538887Y-116269249D01*
X153578560Y-116308922D01*
X153618232Y-116388267D01*
X153618232Y-116586628D01*
X153578560Y-116705646D01*
X153618232Y-117221387D02*
X153618232Y-117380076D01*
X153578560Y-117459421D01*
X153499215Y-117538766D01*
X153340525Y-117578438D01*
X153062819Y-117578438D01*
X152904129Y-117538766D01*
X152824784Y-117459421D01*
X152785112Y-117380076D01*
X152785112Y-117221387D01*
X152824784Y-117142042D01*
X152904129Y-117062697D01*
X153062819Y-117023025D01*
X153340525Y-117023025D01*
X153499215Y-117062697D01*
X153578560Y-117142042D01*
X153618232Y-117221387D01*
X157865112Y-92519233D02*
X158698232Y-92519233D01*
X158698232Y-93074647D02*
X158698232Y-93233336D01*
X158658560Y-93312681D01*
X158579215Y-93392026D01*
X158420525Y-93431698D01*
X158142819Y-93431698D01*
X157984129Y-93392026D01*
X157904784Y-93312681D01*
X157865112Y-93233336D01*
X157865112Y-93074647D01*
X157904784Y-92995302D01*
X157984129Y-92915957D01*
X158142819Y-92876285D01*
X158420525Y-92876285D01*
X158579215Y-92915957D01*
X158658560Y-92995302D01*
X158698232Y-93074647D01*
X157865112Y-94225146D02*
X157865112Y-93749077D01*
X157865112Y-93987112D02*
X158698232Y-93987112D01*
X158579215Y-93907767D01*
X158499870Y-93828422D01*
X158460198Y-93749077D01*
X158698232Y-94740887D02*
X158698232Y-94820232D01*
X158658560Y-94899576D01*
X158618887Y-94939249D01*
X158539542Y-94978921D01*
X158380853Y-95018593D01*
X158182491Y-95018593D01*
X158023801Y-94978921D01*
X157944457Y-94939249D01*
X157904784Y-94899576D01*
X157865112Y-94820232D01*
X157865112Y-94740887D01*
X157904784Y-94661542D01*
X157944457Y-94621870D01*
X158023801Y-94582197D01*
X158182491Y-94542525D01*
X158380853Y-94542525D01*
X158539542Y-94582197D01*
X158618887Y-94621870D01*
X158658560Y-94661542D01*
X158698232Y-94740887D01*
D11*
X146712000Y-92473428D02*
X146512000Y-92187714D01*
X146369142Y-92473428D02*
X146369142Y-91873428D01*
X146597714Y-91873428D01*
X146654857Y-91902000D01*
X146683428Y-91930571D01*
X146712000Y-91987714D01*
X146712000Y-92073428D01*
X146683428Y-92130571D01*
X146654857Y-92159142D01*
X146597714Y-92187714D01*
X146369142Y-92187714D01*
X146912000Y-91873428D02*
X147312000Y-92473428D01*
X147312000Y-91873428D02*
X146912000Y-92473428D01*
D14*
X179018232Y-92439889D02*
X179018232Y-92955630D01*
X178700853Y-92677923D01*
X178700853Y-92796940D01*
X178661180Y-92876285D01*
X178621508Y-92915957D01*
X178542163Y-92955630D01*
X178343801Y-92955630D01*
X178264457Y-92915957D01*
X178224784Y-92876285D01*
X178185112Y-92796940D01*
X178185112Y-92558906D01*
X178224784Y-92479561D01*
X178264457Y-92439889D01*
X179018232Y-93193664D02*
X178185112Y-93471371D01*
X179018232Y-93749077D01*
X179018232Y-93947439D02*
X179018232Y-94463180D01*
X178700853Y-94185473D01*
X178700853Y-94304491D01*
X178661180Y-94383835D01*
X178621508Y-94423508D01*
X178542163Y-94463180D01*
X178343801Y-94463180D01*
X178264457Y-94423508D01*
X178224784Y-94383835D01*
X178185112Y-94304491D01*
X178185112Y-94066456D01*
X178224784Y-93987112D01*
X178264457Y-93947439D01*
D17*
X141025180Y-97463478D02*
X141025180Y-98491574D01*
X141085657Y-98612526D01*
X141146133Y-98673002D01*
X141267085Y-98733478D01*
X141508990Y-98733478D01*
X141629942Y-98673002D01*
X141690419Y-98612526D01*
X141750895Y-98491574D01*
X141750895Y-97463478D01*
X142899942Y-97886812D02*
X142899942Y-98733478D01*
X142597561Y-97403002D02*
X142295180Y-98310145D01*
X143081371Y-98310145D01*
D18*
X136795476Y-112731297D02*
X136962390Y-112786935D01*
X137018028Y-112842574D01*
X137073666Y-112953850D01*
X137073666Y-113120764D01*
X137018028Y-113232040D01*
X136962390Y-113287678D01*
X136851114Y-113343316D01*
X136406009Y-113343316D01*
X136406009Y-112174916D01*
X136795476Y-112174916D01*
X136906752Y-112230555D01*
X136962390Y-112286193D01*
X137018028Y-112397469D01*
X137018028Y-112508745D01*
X136962390Y-112620021D01*
X136906752Y-112675659D01*
X136795476Y-112731297D01*
X136406009Y-112731297D01*
X137574409Y-112174916D02*
X137574409Y-113120764D01*
X137630047Y-113232040D01*
X137685685Y-113287678D01*
X137796961Y-113343316D01*
X138019514Y-113343316D01*
X138130790Y-113287678D01*
X138186428Y-113232040D01*
X138242066Y-113120764D01*
X138242066Y-112174916D01*
X139021000Y-112174916D02*
X139132276Y-112174916D01*
X139243552Y-112230555D01*
X139299190Y-112286193D01*
X139354828Y-112397469D01*
X139410466Y-112620021D01*
X139410466Y-112898212D01*
X139354828Y-113120764D01*
X139299190Y-113232040D01*
X139243552Y-113287678D01*
X139132276Y-113343316D01*
X139021000Y-113343316D01*
X138909723Y-113287678D01*
X138854085Y-113232040D01*
X138798447Y-113120764D01*
X138742809Y-112898212D01*
X138742809Y-112620021D01*
X138798447Y-112397469D01*
X138854085Y-112286193D01*
X138909723Y-112230555D01*
X139021000Y-112174916D01*
X140523228Y-113343316D02*
X139855571Y-113343316D01*
X140189400Y-113343316D02*
X140189400Y-112174916D01*
X140078123Y-112341831D01*
X139966847Y-112453107D01*
X139855571Y-112508745D01*
D17*
X127121476Y-96658333D02*
X126726238Y-96935000D01*
X127121476Y-97132619D02*
X126291476Y-97132619D01*
X126291476Y-96816428D01*
X126331000Y-96737380D01*
X126370523Y-96697857D01*
X126449571Y-96658333D01*
X126568142Y-96658333D01*
X126647190Y-96697857D01*
X126686714Y-96737380D01*
X126726238Y-96816428D01*
X126726238Y-97132619D01*
X126291476Y-95907380D02*
X126291476Y-96302619D01*
X126686714Y-96342142D01*
X126647190Y-96302619D01*
X126607666Y-96223571D01*
X126607666Y-96025952D01*
X126647190Y-95946904D01*
X126686714Y-95907380D01*
X126765761Y-95867857D01*
X126963380Y-95867857D01*
X127042428Y-95907380D01*
X127081952Y-95946904D01*
X127121476Y-96025952D01*
X127121476Y-96223571D01*
X127081952Y-96302619D01*
X127042428Y-96342142D01*
X181906428Y-96658333D02*
X181945952Y-96697857D01*
X181985476Y-96816428D01*
X181985476Y-96895476D01*
X181945952Y-97014047D01*
X181866904Y-97093095D01*
X181787857Y-97132619D01*
X181629761Y-97172142D01*
X181511190Y-97172142D01*
X181353095Y-97132619D01*
X181274047Y-97093095D01*
X181195000Y-97014047D01*
X181155476Y-96895476D01*
X181155476Y-96816428D01*
X181195000Y-96697857D01*
X181234523Y-96658333D01*
X181155476Y-95946904D02*
X181155476Y-96105000D01*
X181195000Y-96184047D01*
X181234523Y-96223571D01*
X181353095Y-96302619D01*
X181511190Y-96342142D01*
X181827380Y-96342142D01*
X181906428Y-96302619D01*
X181945952Y-96263095D01*
X181985476Y-96184047D01*
X181985476Y-96025952D01*
X181945952Y-95946904D01*
X181906428Y-95907380D01*
X181827380Y-95867857D01*
X181629761Y-95867857D01*
X181550714Y-95907380D01*
X181511190Y-95946904D01*
X181471666Y-96025952D01*
X181471666Y-96184047D01*
X181511190Y-96263095D01*
X181550714Y-96302619D01*
X181629761Y-96342142D01*
X121894428Y-108500428D02*
X121854904Y-108539952D01*
X121736333Y-108579476D01*
X121657285Y-108579476D01*
X121538714Y-108539952D01*
X121459666Y-108460904D01*
X121420142Y-108381857D01*
X121380619Y-108223761D01*
X121380619Y-108105190D01*
X121420142Y-107947095D01*
X121459666Y-107868047D01*
X121538714Y-107789000D01*
X121657285Y-107749476D01*
X121736333Y-107749476D01*
X121854904Y-107789000D01*
X121894428Y-107828523D01*
X122684904Y-108579476D02*
X122210619Y-108579476D01*
X122447761Y-108579476D02*
X122447761Y-107749476D01*
X122368714Y-107868047D01*
X122289666Y-107947095D01*
X122210619Y-107986619D01*
X123198714Y-107749476D02*
X123277761Y-107749476D01*
X123356809Y-107789000D01*
X123396333Y-107828523D01*
X123435857Y-107907571D01*
X123475380Y-108065666D01*
X123475380Y-108263285D01*
X123435857Y-108421380D01*
X123396333Y-108500428D01*
X123356809Y-108539952D01*
X123277761Y-108579476D01*
X123198714Y-108579476D01*
X123119666Y-108539952D01*
X123080142Y-108500428D01*
X123040619Y-108421380D01*
X123001095Y-108263285D01*
X123001095Y-108065666D01*
X123040619Y-107907571D01*
X123080142Y-107828523D01*
X123119666Y-107789000D01*
X123198714Y-107749476D01*
X124581476Y-100688619D02*
X123751476Y-100688619D01*
X123751476Y-100491000D01*
X123791000Y-100372428D01*
X123870047Y-100293380D01*
X123949095Y-100253857D01*
X124107190Y-100214333D01*
X124225761Y-100214333D01*
X124383857Y-100253857D01*
X124462904Y-100293380D01*
X124541952Y-100372428D01*
X124581476Y-100491000D01*
X124581476Y-100688619D01*
X123751476Y-99937666D02*
X123751476Y-99384333D01*
X124581476Y-99740047D01*
X118479666Y-105198428D02*
X118440142Y-105237952D01*
X118321571Y-105277476D01*
X118242523Y-105277476D01*
X118123952Y-105237952D01*
X118044904Y-105158904D01*
X118005380Y-105079857D01*
X117965857Y-104921761D01*
X117965857Y-104803190D01*
X118005380Y-104645095D01*
X118044904Y-104566047D01*
X118123952Y-104487000D01*
X118242523Y-104447476D01*
X118321571Y-104447476D01*
X118440142Y-104487000D01*
X118479666Y-104526523D01*
X118874904Y-105277476D02*
X119033000Y-105277476D01*
X119112047Y-105237952D01*
X119151571Y-105198428D01*
X119230619Y-105079857D01*
X119270142Y-104921761D01*
X119270142Y-104605571D01*
X119230619Y-104526523D01*
X119191095Y-104487000D01*
X119112047Y-104447476D01*
X118953952Y-104447476D01*
X118874904Y-104487000D01*
X118835380Y-104526523D01*
X118795857Y-104605571D01*
X118795857Y-104803190D01*
X118835380Y-104882238D01*
X118874904Y-104921761D01*
X118953952Y-104961285D01*
X119112047Y-104961285D01*
X119191095Y-104921761D01*
X119230619Y-104882238D01*
X119270142Y-104803190D01*
X130423476Y-112039571D02*
X130028238Y-112316238D01*
X130423476Y-112513857D02*
X129593476Y-112513857D01*
X129593476Y-112197666D01*
X129633000Y-112118619D01*
X129672523Y-112079095D01*
X129751571Y-112039571D01*
X129870142Y-112039571D01*
X129949190Y-112079095D01*
X129988714Y-112118619D01*
X130028238Y-112197666D01*
X130028238Y-112513857D01*
X130423476Y-111249095D02*
X130423476Y-111723380D01*
X130423476Y-111486238D02*
X129593476Y-111486238D01*
X129712047Y-111565285D01*
X129791095Y-111644333D01*
X129830619Y-111723380D01*
X129949190Y-110774809D02*
X129909666Y-110853857D01*
X129870142Y-110893380D01*
X129791095Y-110932904D01*
X129751571Y-110932904D01*
X129672523Y-110893380D01*
X129633000Y-110853857D01*
X129593476Y-110774809D01*
X129593476Y-110616714D01*
X129633000Y-110537666D01*
X129672523Y-110498142D01*
X129751571Y-110458619D01*
X129791095Y-110458619D01*
X129870142Y-110498142D01*
X129909666Y-110537666D01*
X129949190Y-110616714D01*
X129949190Y-110774809D01*
X129988714Y-110853857D01*
X130028238Y-110893380D01*
X130107285Y-110932904D01*
X130265380Y-110932904D01*
X130344428Y-110893380D01*
X130383952Y-110853857D01*
X130423476Y-110774809D01*
X130423476Y-110616714D01*
X130383952Y-110537666D01*
X130344428Y-110498142D01*
X130265380Y-110458619D01*
X130107285Y-110458619D01*
X130028238Y-110498142D01*
X129988714Y-110537666D01*
X129949190Y-110616714D01*
X161043404Y-102229476D02*
X160766738Y-101834238D01*
X160569119Y-102229476D02*
X160569119Y-101399476D01*
X160885309Y-101399476D01*
X160964357Y-101439000D01*
X161003880Y-101478523D01*
X161043404Y-101557571D01*
X161043404Y-101676142D01*
X161003880Y-101755190D01*
X160964357Y-101794714D01*
X160885309Y-101834238D01*
X160569119Y-101834238D01*
X161833880Y-102229476D02*
X161359595Y-102229476D01*
X161596738Y-102229476D02*
X161596738Y-101399476D01*
X161517690Y-101518047D01*
X161438642Y-101597095D01*
X161359595Y-101636619D01*
X162347690Y-101399476D02*
X162426738Y-101399476D01*
X162505785Y-101439000D01*
X162545309Y-101478523D01*
X162584833Y-101557571D01*
X162624357Y-101715666D01*
X162624357Y-101913285D01*
X162584833Y-102071380D01*
X162545309Y-102150428D01*
X162505785Y-102189952D01*
X162426738Y-102229476D01*
X162347690Y-102229476D01*
X162268642Y-102189952D01*
X162229119Y-102150428D01*
X162189595Y-102071380D01*
X162150071Y-101913285D01*
X162150071Y-101715666D01*
X162189595Y-101557571D01*
X162229119Y-101478523D01*
X162268642Y-101439000D01*
X162347690Y-101399476D01*
X121866523Y-97107047D02*
X121827000Y-97186095D01*
X121747952Y-97265142D01*
X121629380Y-97383714D01*
X121589857Y-97462761D01*
X121589857Y-97541809D01*
X121787476Y-97502285D02*
X121747952Y-97581333D01*
X121668904Y-97660380D01*
X121510809Y-97699904D01*
X121234142Y-97699904D01*
X121076047Y-97660380D01*
X120997000Y-97581333D01*
X120957476Y-97502285D01*
X120957476Y-97344190D01*
X120997000Y-97265142D01*
X121076047Y-97186095D01*
X121234142Y-97146571D01*
X121510809Y-97146571D01*
X121668904Y-97186095D01*
X121747952Y-97265142D01*
X121787476Y-97344190D01*
X121787476Y-97502285D01*
X121036523Y-96830380D02*
X120997000Y-96790857D01*
X120957476Y-96711809D01*
X120957476Y-96514190D01*
X120997000Y-96435142D01*
X121036523Y-96395619D01*
X121115571Y-96356095D01*
X121194619Y-96356095D01*
X121313190Y-96395619D01*
X121787476Y-96869904D01*
X121787476Y-96356095D01*
X117215476Y-93610333D02*
X116820238Y-93887000D01*
X117215476Y-94084619D02*
X116385476Y-94084619D01*
X116385476Y-93768428D01*
X116425000Y-93689380D01*
X116464523Y-93649857D01*
X116543571Y-93610333D01*
X116662142Y-93610333D01*
X116741190Y-93649857D01*
X116780714Y-93689380D01*
X116820238Y-93768428D01*
X116820238Y-94084619D01*
X116464523Y-93294142D02*
X116425000Y-93254619D01*
X116385476Y-93175571D01*
X116385476Y-92977952D01*
X116425000Y-92898904D01*
X116464523Y-92859380D01*
X116543571Y-92819857D01*
X116622619Y-92819857D01*
X116741190Y-92859380D01*
X117215476Y-93333666D01*
X117215476Y-92819857D01*
X128137476Y-113055571D02*
X127742238Y-113332238D01*
X128137476Y-113529857D02*
X127307476Y-113529857D01*
X127307476Y-113213666D01*
X127347000Y-113134619D01*
X127386523Y-113095095D01*
X127465571Y-113055571D01*
X127584142Y-113055571D01*
X127663190Y-113095095D01*
X127702714Y-113134619D01*
X127742238Y-113213666D01*
X127742238Y-113529857D01*
X128137476Y-112265095D02*
X128137476Y-112739380D01*
X128137476Y-112502238D02*
X127307476Y-112502238D01*
X127426047Y-112581285D01*
X127505095Y-112660333D01*
X127544619Y-112739380D01*
X127307476Y-111988428D02*
X127307476Y-111435095D01*
X128137476Y-111790809D01*
X129401666Y-118660428D02*
X129362142Y-118699952D01*
X129243571Y-118739476D01*
X129164523Y-118739476D01*
X129045952Y-118699952D01*
X128966904Y-118620904D01*
X128927380Y-118541857D01*
X128887857Y-118383761D01*
X128887857Y-118265190D01*
X128927380Y-118107095D01*
X128966904Y-118028047D01*
X129045952Y-117949000D01*
X129164523Y-117909476D01*
X129243571Y-117909476D01*
X129362142Y-117949000D01*
X129401666Y-117988523D01*
X130113095Y-118186142D02*
X130113095Y-118739476D01*
X129915476Y-117869952D02*
X129717857Y-118462809D01*
X130231666Y-118462809D01*
X128899476Y-101958619D02*
X128069476Y-101958619D01*
X128069476Y-101761000D01*
X128109000Y-101642428D01*
X128188047Y-101563380D01*
X128267095Y-101523857D01*
X128425190Y-101484333D01*
X128543761Y-101484333D01*
X128701857Y-101523857D01*
X128780904Y-101563380D01*
X128859952Y-101642428D01*
X128899476Y-101761000D01*
X128899476Y-101958619D01*
X128425190Y-101010047D02*
X128385666Y-101089095D01*
X128346142Y-101128619D01*
X128267095Y-101168142D01*
X128227571Y-101168142D01*
X128148523Y-101128619D01*
X128109000Y-101089095D01*
X128069476Y-101010047D01*
X128069476Y-100851952D01*
X128109000Y-100772904D01*
X128148523Y-100733380D01*
X128227571Y-100693857D01*
X128267095Y-100693857D01*
X128346142Y-100733380D01*
X128385666Y-100772904D01*
X128425190Y-100851952D01*
X128425190Y-101010047D01*
X128464714Y-101089095D01*
X128504238Y-101128619D01*
X128583285Y-101168142D01*
X128741380Y-101168142D01*
X128820428Y-101128619D01*
X128859952Y-101089095D01*
X128899476Y-101010047D01*
X128899476Y-100851952D01*
X128859952Y-100772904D01*
X128820428Y-100733380D01*
X128741380Y-100693857D01*
X128583285Y-100693857D01*
X128504238Y-100733380D01*
X128464714Y-100772904D01*
X128425190Y-100851952D01*
X117215476Y-95388333D02*
X116820238Y-95665000D01*
X117215476Y-95862619D02*
X116385476Y-95862619D01*
X116385476Y-95546428D01*
X116425000Y-95467380D01*
X116464523Y-95427857D01*
X116543571Y-95388333D01*
X116662142Y-95388333D01*
X116741190Y-95427857D01*
X116780714Y-95467380D01*
X116820238Y-95546428D01*
X116820238Y-95862619D01*
X117215476Y-94597857D02*
X117215476Y-95072142D01*
X117215476Y-94835000D02*
X116385476Y-94835000D01*
X116504047Y-94914047D01*
X116583095Y-94993095D01*
X116622619Y-95072142D01*
X132963476Y-94338619D02*
X132133476Y-94338619D01*
X132133476Y-94141000D01*
X132173000Y-94022428D01*
X132252047Y-93943380D01*
X132331095Y-93903857D01*
X132489190Y-93864333D01*
X132607761Y-93864333D01*
X132765857Y-93903857D01*
X132844904Y-93943380D01*
X132923952Y-94022428D01*
X132963476Y-94141000D01*
X132963476Y-94338619D01*
X132410142Y-93152904D02*
X132963476Y-93152904D01*
X132093952Y-93350523D02*
X132686809Y-93548142D01*
X132686809Y-93034333D01*
X132963476Y-96370619D02*
X132133476Y-96370619D01*
X132133476Y-96173000D01*
X132173000Y-96054428D01*
X132252047Y-95975380D01*
X132331095Y-95935857D01*
X132489190Y-95896333D01*
X132607761Y-95896333D01*
X132765857Y-95935857D01*
X132844904Y-95975380D01*
X132923952Y-96054428D01*
X132963476Y-96173000D01*
X132963476Y-96370619D01*
X132133476Y-95619666D02*
X132133476Y-95105857D01*
X132449666Y-95382523D01*
X132449666Y-95263952D01*
X132489190Y-95184904D01*
X132528714Y-95145380D01*
X132607761Y-95105857D01*
X132805380Y-95105857D01*
X132884428Y-95145380D01*
X132923952Y-95184904D01*
X132963476Y-95263952D01*
X132963476Y-95501095D01*
X132923952Y-95580142D01*
X132884428Y-95619666D01*
X131687666Y-98419476D02*
X131411000Y-98024238D01*
X131213380Y-98419476D02*
X131213380Y-97589476D01*
X131529571Y-97589476D01*
X131608619Y-97629000D01*
X131648142Y-97668523D01*
X131687666Y-97747571D01*
X131687666Y-97866142D01*
X131648142Y-97945190D01*
X131608619Y-97984714D01*
X131529571Y-98024238D01*
X131213380Y-98024238D01*
X131964333Y-97589476D02*
X132517666Y-97589476D01*
X132161952Y-98419476D01*
X117082666Y-113580428D02*
X117043142Y-113619952D01*
X116924571Y-113659476D01*
X116845523Y-113659476D01*
X116726952Y-113619952D01*
X116647904Y-113540904D01*
X116608380Y-113461857D01*
X116568857Y-113303761D01*
X116568857Y-113185190D01*
X116608380Y-113027095D01*
X116647904Y-112948047D01*
X116726952Y-112869000D01*
X116845523Y-112829476D01*
X116924571Y-112829476D01*
X117043142Y-112869000D01*
X117082666Y-112908523D01*
X117398857Y-112908523D02*
X117438380Y-112869000D01*
X117517428Y-112829476D01*
X117715047Y-112829476D01*
X117794095Y-112869000D01*
X117833619Y-112908523D01*
X117873142Y-112987571D01*
X117873142Y-113066619D01*
X117833619Y-113185190D01*
X117359333Y-113659476D01*
X117873142Y-113659476D01*
X114704761Y-97599333D02*
X114752380Y-97456476D01*
X114752380Y-97218380D01*
X114704761Y-97123142D01*
X114657142Y-97075523D01*
X114561904Y-97027904D01*
X114466666Y-97027904D01*
X114371428Y-97075523D01*
X114323809Y-97123142D01*
X114276190Y-97218380D01*
X114228571Y-97408857D01*
X114180952Y-97504095D01*
X114133333Y-97551714D01*
X114038095Y-97599333D01*
X113942857Y-97599333D01*
X113847619Y-97551714D01*
X113800000Y-97504095D01*
X113752380Y-97408857D01*
X113752380Y-97170761D01*
X113800000Y-97027904D01*
X113752380Y-96694571D02*
X114752380Y-96456476D01*
X114038095Y-96266000D01*
X114752380Y-96075523D01*
X113752380Y-95837428D01*
X113847619Y-95504095D02*
X113800000Y-95456476D01*
X113752380Y-95361238D01*
X113752380Y-95123142D01*
X113800000Y-95027904D01*
X113847619Y-94980285D01*
X113942857Y-94932666D01*
X114038095Y-94932666D01*
X114180952Y-94980285D01*
X114752380Y-95551714D01*
X114752380Y-94932666D01*
X129401666Y-120184428D02*
X129362142Y-120223952D01*
X129243571Y-120263476D01*
X129164523Y-120263476D01*
X129045952Y-120223952D01*
X128966904Y-120144904D01*
X128927380Y-120065857D01*
X128887857Y-119907761D01*
X128887857Y-119789190D01*
X128927380Y-119631095D01*
X128966904Y-119552047D01*
X129045952Y-119473000D01*
X129164523Y-119433476D01*
X129243571Y-119433476D01*
X129362142Y-119473000D01*
X129401666Y-119512523D01*
X130152619Y-119433476D02*
X129757380Y-119433476D01*
X129717857Y-119828714D01*
X129757380Y-119789190D01*
X129836428Y-119749666D01*
X130034047Y-119749666D01*
X130113095Y-119789190D01*
X130152619Y-119828714D01*
X130192142Y-119907761D01*
X130192142Y-120105380D01*
X130152619Y-120184428D01*
X130113095Y-120223952D01*
X130034047Y-120263476D01*
X129836428Y-120263476D01*
X129757380Y-120223952D01*
X129717857Y-120184428D01*
X121561380Y-118739476D02*
X121561380Y-117909476D01*
X121759000Y-117909476D01*
X121877571Y-117949000D01*
X121956619Y-118028047D01*
X121996142Y-118107095D01*
X122035666Y-118265190D01*
X122035666Y-118383761D01*
X121996142Y-118541857D01*
X121956619Y-118620904D01*
X121877571Y-118699952D01*
X121759000Y-118739476D01*
X121561380Y-118739476D01*
X122351857Y-117988523D02*
X122391380Y-117949000D01*
X122470428Y-117909476D01*
X122668047Y-117909476D01*
X122747095Y-117949000D01*
X122786619Y-117988523D01*
X122826142Y-118067571D01*
X122826142Y-118146619D01*
X122786619Y-118265190D01*
X122312333Y-118739476D01*
X122826142Y-118739476D01*
X117082666Y-109643428D02*
X117043142Y-109682952D01*
X116924571Y-109722476D01*
X116845523Y-109722476D01*
X116726952Y-109682952D01*
X116647904Y-109603904D01*
X116608380Y-109524857D01*
X116568857Y-109366761D01*
X116568857Y-109248190D01*
X116608380Y-109090095D01*
X116647904Y-109011047D01*
X116726952Y-108932000D01*
X116845523Y-108892476D01*
X116924571Y-108892476D01*
X117043142Y-108932000D01*
X117082666Y-108971523D01*
X117873142Y-109722476D02*
X117398857Y-109722476D01*
X117636000Y-109722476D02*
X117636000Y-108892476D01*
X117556952Y-109011047D01*
X117477904Y-109090095D01*
X117398857Y-109129619D01*
X114704761Y-115125333D02*
X114752380Y-114982476D01*
X114752380Y-114744380D01*
X114704761Y-114649142D01*
X114657142Y-114601523D01*
X114561904Y-114553904D01*
X114466666Y-114553904D01*
X114371428Y-114601523D01*
X114323809Y-114649142D01*
X114276190Y-114744380D01*
X114228571Y-114934857D01*
X114180952Y-115030095D01*
X114133333Y-115077714D01*
X114038095Y-115125333D01*
X113942857Y-115125333D01*
X113847619Y-115077714D01*
X113800000Y-115030095D01*
X113752380Y-114934857D01*
X113752380Y-114696761D01*
X113800000Y-114553904D01*
X113752380Y-114220571D02*
X114752380Y-113982476D01*
X114038095Y-113792000D01*
X114752380Y-113601523D01*
X113752380Y-113363428D01*
X114752380Y-112458666D02*
X114752380Y-113030095D01*
X114752380Y-112744380D02*
X113752380Y-112744380D01*
X113895238Y-112839619D01*
X113990476Y-112934857D01*
X114038095Y-113030095D01*
X117390428Y-117994333D02*
X117429952Y-118033857D01*
X117469476Y-118152428D01*
X117469476Y-118231476D01*
X117429952Y-118350047D01*
X117350904Y-118429095D01*
X117271857Y-118468619D01*
X117113761Y-118508142D01*
X116995190Y-118508142D01*
X116837095Y-118468619D01*
X116758047Y-118429095D01*
X116679000Y-118350047D01*
X116639476Y-118231476D01*
X116639476Y-118152428D01*
X116679000Y-118033857D01*
X116718523Y-117994333D01*
X116639476Y-117717666D02*
X116639476Y-117203857D01*
X116955666Y-117480523D01*
X116955666Y-117361952D01*
X116995190Y-117282904D01*
X117034714Y-117243380D01*
X117113761Y-117203857D01*
X117311380Y-117203857D01*
X117390428Y-117243380D01*
X117429952Y-117282904D01*
X117469476Y-117361952D01*
X117469476Y-117599095D01*
X117429952Y-117678142D01*
X117390428Y-117717666D01*
X121033619Y-101907476D02*
X121033619Y-102579380D01*
X121073142Y-102658428D01*
X121112666Y-102697952D01*
X121191714Y-102737476D01*
X121349809Y-102737476D01*
X121428857Y-102697952D01*
X121468380Y-102658428D01*
X121507904Y-102579380D01*
X121507904Y-101907476D01*
X121824095Y-101907476D02*
X122337904Y-101907476D01*
X122061238Y-102223666D01*
X122179809Y-102223666D01*
X122258857Y-102263190D01*
X122298380Y-102302714D01*
X122337904Y-102381761D01*
X122337904Y-102579380D01*
X122298380Y-102658428D01*
X122258857Y-102697952D01*
X122179809Y-102737476D01*
X121942666Y-102737476D01*
X121863619Y-102697952D01*
X121824095Y-102658428D01*
X148124428Y-99085571D02*
X148163952Y-99125095D01*
X148203476Y-99243666D01*
X148203476Y-99322714D01*
X148163952Y-99441285D01*
X148084904Y-99520333D01*
X148005857Y-99559857D01*
X147847761Y-99599380D01*
X147729190Y-99599380D01*
X147571095Y-99559857D01*
X147492047Y-99520333D01*
X147413000Y-99441285D01*
X147373476Y-99322714D01*
X147373476Y-99243666D01*
X147413000Y-99125095D01*
X147452523Y-99085571D01*
X148203476Y-98295095D02*
X148203476Y-98769380D01*
X148203476Y-98532238D02*
X147373476Y-98532238D01*
X147492047Y-98611285D01*
X147571095Y-98690333D01*
X147610619Y-98769380D01*
X148203476Y-97504619D02*
X148203476Y-97978904D01*
X148203476Y-97741761D02*
X147373476Y-97741761D01*
X147492047Y-97820809D01*
X147571095Y-97899857D01*
X147610619Y-97978904D01*
X119495666Y-119501476D02*
X119219000Y-119106238D01*
X119021380Y-119501476D02*
X119021380Y-118671476D01*
X119337571Y-118671476D01*
X119416619Y-118711000D01*
X119456142Y-118750523D01*
X119495666Y-118829571D01*
X119495666Y-118948142D01*
X119456142Y-119027190D01*
X119416619Y-119066714D01*
X119337571Y-119106238D01*
X119021380Y-119106238D01*
X120207095Y-118948142D02*
X120207095Y-119501476D01*
X120009476Y-118631952D02*
X119811857Y-119224809D01*
X120325666Y-119224809D01*
X147695476Y-109854316D02*
X147300238Y-110130983D01*
X147695476Y-110328602D02*
X146865476Y-110328602D01*
X146865476Y-110012411D01*
X146905000Y-109933364D01*
X146944523Y-109893840D01*
X147023571Y-109854316D01*
X147142142Y-109854316D01*
X147221190Y-109893840D01*
X147260714Y-109933364D01*
X147300238Y-110012411D01*
X147300238Y-110328602D01*
X147695476Y-109063840D02*
X147695476Y-109538125D01*
X147695476Y-109300983D02*
X146865476Y-109300983D01*
X146984047Y-109380030D01*
X147063095Y-109459078D01*
X147102619Y-109538125D01*
X147142142Y-108352411D02*
X147695476Y-108352411D01*
X146825952Y-108550030D02*
X147418809Y-108747649D01*
X147418809Y-108233840D01*
X119247476Y-118214619D02*
X118417476Y-118214619D01*
X118417476Y-118017000D01*
X118457000Y-117898428D01*
X118536047Y-117819380D01*
X118615095Y-117779857D01*
X118773190Y-117740333D01*
X118891761Y-117740333D01*
X119049857Y-117779857D01*
X119128904Y-117819380D01*
X119207952Y-117898428D01*
X119247476Y-118017000D01*
X119247476Y-118214619D01*
X119247476Y-116949857D02*
X119247476Y-117424142D01*
X119247476Y-117187000D02*
X118417476Y-117187000D01*
X118536047Y-117266047D01*
X118615095Y-117345095D01*
X118654619Y-117424142D01*
X149902428Y-99085571D02*
X149941952Y-99125095D01*
X149981476Y-99243666D01*
X149981476Y-99322714D01*
X149941952Y-99441285D01*
X149862904Y-99520333D01*
X149783857Y-99559857D01*
X149625761Y-99599380D01*
X149507190Y-99599380D01*
X149349095Y-99559857D01*
X149270047Y-99520333D01*
X149191000Y-99441285D01*
X149151476Y-99322714D01*
X149151476Y-99243666D01*
X149191000Y-99125095D01*
X149230523Y-99085571D01*
X149981476Y-98295095D02*
X149981476Y-98769380D01*
X149981476Y-98532238D02*
X149151476Y-98532238D01*
X149270047Y-98611285D01*
X149349095Y-98690333D01*
X149388619Y-98769380D01*
X149230523Y-97978904D02*
X149191000Y-97939380D01*
X149151476Y-97860333D01*
X149151476Y-97662714D01*
X149191000Y-97583666D01*
X149230523Y-97544142D01*
X149309571Y-97504619D01*
X149388619Y-97504619D01*
X149507190Y-97544142D01*
X149981476Y-98018428D01*
X149981476Y-97504619D01*
X117215476Y-91832333D02*
X116820238Y-92109000D01*
X117215476Y-92306619D02*
X116385476Y-92306619D01*
X116385476Y-91990428D01*
X116425000Y-91911380D01*
X116464523Y-91871857D01*
X116543571Y-91832333D01*
X116662142Y-91832333D01*
X116741190Y-91871857D01*
X116780714Y-91911380D01*
X116820238Y-91990428D01*
X116820238Y-92306619D01*
X116385476Y-91555666D02*
X116385476Y-91041857D01*
X116701666Y-91318523D01*
X116701666Y-91199952D01*
X116741190Y-91120904D01*
X116780714Y-91081380D01*
X116859761Y-91041857D01*
X117057380Y-91041857D01*
X117136428Y-91081380D01*
X117175952Y-91120904D01*
X117215476Y-91199952D01*
X117215476Y-91437095D01*
X117175952Y-91516142D01*
X117136428Y-91555666D01*
X125591619Y-110035476D02*
X125591619Y-110707380D01*
X125631142Y-110786428D01*
X125670666Y-110825952D01*
X125749714Y-110865476D01*
X125907809Y-110865476D01*
X125986857Y-110825952D01*
X126026380Y-110786428D01*
X126065904Y-110707380D01*
X126065904Y-110035476D01*
X126895904Y-110865476D02*
X126421619Y-110865476D01*
X126658761Y-110865476D02*
X126658761Y-110035476D01*
X126579714Y-110154047D01*
X126500666Y-110233095D01*
X126421619Y-110272619D01*
X161043404Y-105277476D02*
X160766738Y-104882238D01*
X160569119Y-105277476D02*
X160569119Y-104447476D01*
X160885309Y-104447476D01*
X160964357Y-104487000D01*
X161003880Y-104526523D01*
X161043404Y-104605571D01*
X161043404Y-104724142D01*
X161003880Y-104803190D01*
X160964357Y-104842714D01*
X160885309Y-104882238D01*
X160569119Y-104882238D01*
X161833880Y-105277476D02*
X161359595Y-105277476D01*
X161596738Y-105277476D02*
X161596738Y-104447476D01*
X161517690Y-104566047D01*
X161438642Y-104645095D01*
X161359595Y-104684619D01*
X162150071Y-104526523D02*
X162189595Y-104487000D01*
X162268642Y-104447476D01*
X162466261Y-104447476D01*
X162545309Y-104487000D01*
X162584833Y-104526523D01*
X162624357Y-104605571D01*
X162624357Y-104684619D01*
X162584833Y-104803190D01*
X162110547Y-105277476D01*
X162624357Y-105277476D01*
X161043404Y-106801476D02*
X160766738Y-106406238D01*
X160569119Y-106801476D02*
X160569119Y-105971476D01*
X160885309Y-105971476D01*
X160964357Y-106011000D01*
X161003880Y-106050523D01*
X161043404Y-106129571D01*
X161043404Y-106248142D01*
X161003880Y-106327190D01*
X160964357Y-106366714D01*
X160885309Y-106406238D01*
X160569119Y-106406238D01*
X161833880Y-106801476D02*
X161359595Y-106801476D01*
X161596738Y-106801476D02*
X161596738Y-105971476D01*
X161517690Y-106090047D01*
X161438642Y-106169095D01*
X161359595Y-106208619D01*
X162110547Y-105971476D02*
X162624357Y-105971476D01*
X162347690Y-106287666D01*
X162466261Y-106287666D01*
X162545309Y-106327190D01*
X162584833Y-106366714D01*
X162624357Y-106445761D01*
X162624357Y-106643380D01*
X162584833Y-106722428D01*
X162545309Y-106761952D01*
X162466261Y-106801476D01*
X162229119Y-106801476D01*
X162150071Y-106761952D01*
X162110547Y-106722428D01*
X183430428Y-96658333D02*
X183469952Y-96697857D01*
X183509476Y-96816428D01*
X183509476Y-96895476D01*
X183469952Y-97014047D01*
X183390904Y-97093095D01*
X183311857Y-97132619D01*
X183153761Y-97172142D01*
X183035190Y-97172142D01*
X182877095Y-97132619D01*
X182798047Y-97093095D01*
X182719000Y-97014047D01*
X182679476Y-96895476D01*
X182679476Y-96816428D01*
X182719000Y-96697857D01*
X182758523Y-96658333D01*
X182679476Y-96381666D02*
X182679476Y-95828333D01*
X183509476Y-96184047D01*
X137133142Y-96134380D02*
X136855809Y-95738190D01*
X136657714Y-96134380D02*
X136657714Y-95302380D01*
X136974666Y-95302380D01*
X137053904Y-95342000D01*
X137093523Y-95381619D01*
X137133142Y-95460857D01*
X137133142Y-95579714D01*
X137093523Y-95658952D01*
X137053904Y-95698571D01*
X136974666Y-95738190D01*
X136657714Y-95738190D01*
X137450095Y-95381619D02*
X137489714Y-95342000D01*
X137568952Y-95302380D01*
X137767047Y-95302380D01*
X137846285Y-95342000D01*
X137885904Y-95381619D01*
X137925523Y-95460857D01*
X137925523Y-95540095D01*
X137885904Y-95658952D01*
X137410476Y-96134380D01*
X137925523Y-96134380D01*
X138242476Y-95381619D02*
X138282095Y-95342000D01*
X138361333Y-95302380D01*
X138559428Y-95302380D01*
X138638666Y-95342000D01*
X138678285Y-95381619D01*
X138717904Y-95460857D01*
X138717904Y-95540095D01*
X138678285Y-95658952D01*
X138202857Y-96134380D01*
X138717904Y-96134380D01*
X117898428Y-98182333D02*
X117937952Y-98221857D01*
X117977476Y-98340428D01*
X117977476Y-98419476D01*
X117937952Y-98538047D01*
X117858904Y-98617095D01*
X117779857Y-98656619D01*
X117621761Y-98696142D01*
X117503190Y-98696142D01*
X117345095Y-98656619D01*
X117266047Y-98617095D01*
X117187000Y-98538047D01*
X117147476Y-98419476D01*
X117147476Y-98340428D01*
X117187000Y-98221857D01*
X117226523Y-98182333D01*
X117503190Y-97708047D02*
X117463666Y-97787095D01*
X117424142Y-97826619D01*
X117345095Y-97866142D01*
X117305571Y-97866142D01*
X117226523Y-97826619D01*
X117187000Y-97787095D01*
X117147476Y-97708047D01*
X117147476Y-97549952D01*
X117187000Y-97470904D01*
X117226523Y-97431380D01*
X117305571Y-97391857D01*
X117345095Y-97391857D01*
X117424142Y-97431380D01*
X117463666Y-97470904D01*
X117503190Y-97549952D01*
X117503190Y-97708047D01*
X117542714Y-97787095D01*
X117582238Y-97826619D01*
X117661285Y-97866142D01*
X117819380Y-97866142D01*
X117898428Y-97826619D01*
X117937952Y-97787095D01*
X117977476Y-97708047D01*
X117977476Y-97549952D01*
X117937952Y-97470904D01*
X117898428Y-97431380D01*
X117819380Y-97391857D01*
X117661285Y-97391857D01*
X117582238Y-97431380D01*
X117542714Y-97470904D01*
X117503190Y-97549952D01*
X142869476Y-94338619D02*
X142039476Y-94338619D01*
X142039476Y-94141000D01*
X142079000Y-94022428D01*
X142158047Y-93943380D01*
X142237095Y-93903857D01*
X142395190Y-93864333D01*
X142513761Y-93864333D01*
X142671857Y-93903857D01*
X142750904Y-93943380D01*
X142829952Y-94022428D01*
X142869476Y-94141000D01*
X142869476Y-94338619D01*
X142039476Y-93152904D02*
X142039476Y-93311000D01*
X142079000Y-93390047D01*
X142118523Y-93429571D01*
X142237095Y-93508619D01*
X142395190Y-93548142D01*
X142711380Y-93548142D01*
X142790428Y-93508619D01*
X142829952Y-93469095D01*
X142869476Y-93390047D01*
X142869476Y-93231952D01*
X142829952Y-93152904D01*
X142790428Y-93113380D01*
X142711380Y-93073857D01*
X142513761Y-93073857D01*
X142434714Y-93113380D01*
X142395190Y-93152904D01*
X142355666Y-93231952D01*
X142355666Y-93390047D01*
X142395190Y-93469095D01*
X142434714Y-93508619D01*
X142513761Y-93548142D01*
X136626428Y-95117476D02*
X136349761Y-94722238D01*
X136152142Y-95117476D02*
X136152142Y-94287476D01*
X136468333Y-94287476D01*
X136547380Y-94327000D01*
X136586904Y-94366523D01*
X136626428Y-94445571D01*
X136626428Y-94564142D01*
X136586904Y-94643190D01*
X136547380Y-94682714D01*
X136468333Y-94722238D01*
X136152142Y-94722238D01*
X136942619Y-94366523D02*
X136982142Y-94327000D01*
X137061190Y-94287476D01*
X137258809Y-94287476D01*
X137337857Y-94327000D01*
X137377380Y-94366523D01*
X137416904Y-94445571D01*
X137416904Y-94524619D01*
X137377380Y-94643190D01*
X136903095Y-95117476D01*
X137416904Y-95117476D01*
X138207380Y-95117476D02*
X137733095Y-95117476D01*
X137970238Y-95117476D02*
X137970238Y-94287476D01*
X137891190Y-94406047D01*
X137812142Y-94485095D01*
X137733095Y-94524619D01*
X161043404Y-100705476D02*
X160766738Y-100310238D01*
X160569119Y-100705476D02*
X160569119Y-99875476D01*
X160885309Y-99875476D01*
X160964357Y-99915000D01*
X161003880Y-99954523D01*
X161043404Y-100033571D01*
X161043404Y-100152142D01*
X161003880Y-100231190D01*
X160964357Y-100270714D01*
X160885309Y-100310238D01*
X160569119Y-100310238D01*
X161438642Y-100705476D02*
X161596738Y-100705476D01*
X161675785Y-100665952D01*
X161715309Y-100626428D01*
X161794357Y-100507857D01*
X161833880Y-100349761D01*
X161833880Y-100033571D01*
X161794357Y-99954523D01*
X161754833Y-99915000D01*
X161675785Y-99875476D01*
X161517690Y-99875476D01*
X161438642Y-99915000D01*
X161399119Y-99954523D01*
X161359595Y-100033571D01*
X161359595Y-100231190D01*
X161399119Y-100310238D01*
X161438642Y-100349761D01*
X161517690Y-100389285D01*
X161675785Y-100389285D01*
X161754833Y-100349761D01*
X161794357Y-100310238D01*
X161833880Y-100231190D01*
X131687666Y-99943476D02*
X131411000Y-99548238D01*
X131213380Y-99943476D02*
X131213380Y-99113476D01*
X131529571Y-99113476D01*
X131608619Y-99153000D01*
X131648142Y-99192523D01*
X131687666Y-99271571D01*
X131687666Y-99390142D01*
X131648142Y-99469190D01*
X131608619Y-99508714D01*
X131529571Y-99548238D01*
X131213380Y-99548238D01*
X132161952Y-99469190D02*
X132082904Y-99429666D01*
X132043380Y-99390142D01*
X132003857Y-99311095D01*
X132003857Y-99271571D01*
X132043380Y-99192523D01*
X132082904Y-99153000D01*
X132161952Y-99113476D01*
X132320047Y-99113476D01*
X132399095Y-99153000D01*
X132438619Y-99192523D01*
X132478142Y-99271571D01*
X132478142Y-99311095D01*
X132438619Y-99390142D01*
X132399095Y-99429666D01*
X132320047Y-99469190D01*
X132161952Y-99469190D01*
X132082904Y-99508714D01*
X132043380Y-99548238D01*
X132003857Y-99627285D01*
X132003857Y-99785380D01*
X132043380Y-99864428D01*
X132082904Y-99903952D01*
X132161952Y-99943476D01*
X132320047Y-99943476D01*
X132399095Y-99903952D01*
X132438619Y-99864428D01*
X132478142Y-99785380D01*
X132478142Y-99627285D01*
X132438619Y-99548238D01*
X132399095Y-99508714D01*
X132320047Y-99469190D01*
X171503476Y-109090380D02*
X172175380Y-109090380D01*
X172254428Y-109050857D01*
X172293952Y-109011333D01*
X172333476Y-108932285D01*
X172333476Y-108774190D01*
X172293952Y-108695142D01*
X172254428Y-108655619D01*
X172175380Y-108616095D01*
X171503476Y-108616095D01*
X171582523Y-108260380D02*
X171543000Y-108220857D01*
X171503476Y-108141809D01*
X171503476Y-107944190D01*
X171543000Y-107865142D01*
X171582523Y-107825619D01*
X171661571Y-107786095D01*
X171740619Y-107786095D01*
X171859190Y-107825619D01*
X172333476Y-108299904D01*
X172333476Y-107786095D01*
X187676666Y-113219904D02*
X187676666Y-112743714D01*
X187962380Y-113315142D02*
X186962380Y-112981809D01*
X187962380Y-112648476D01*
X187295714Y-112315142D02*
X187962380Y-112315142D01*
X187390952Y-112315142D02*
X187343333Y-112267523D01*
X187295714Y-112172285D01*
X187295714Y-112029428D01*
X187343333Y-111934190D01*
X187438571Y-111886571D01*
X187962380Y-111886571D01*
X187295714Y-111553238D02*
X187295714Y-111172285D01*
X186962380Y-111410380D02*
X187819523Y-111410380D01*
X187914761Y-111362761D01*
X187962380Y-111267523D01*
X187962380Y-111172285D01*
X187914761Y-110458000D02*
X187962380Y-110553238D01*
X187962380Y-110743714D01*
X187914761Y-110838952D01*
X187819523Y-110886571D01*
X187438571Y-110886571D01*
X187343333Y-110838952D01*
X187295714Y-110743714D01*
X187295714Y-110553238D01*
X187343333Y-110458000D01*
X187438571Y-110410380D01*
X187533809Y-110410380D01*
X187629047Y-110886571D01*
X187295714Y-109981809D02*
X187962380Y-109981809D01*
X187390952Y-109981809D02*
X187343333Y-109934190D01*
X187295714Y-109838952D01*
X187295714Y-109696095D01*
X187343333Y-109600857D01*
X187438571Y-109553238D01*
X187962380Y-109553238D01*
X187295714Y-109077047D02*
X187962380Y-109077047D01*
X187390952Y-109077047D02*
X187343333Y-109029428D01*
X187295714Y-108934190D01*
X187295714Y-108791333D01*
X187343333Y-108696095D01*
X187438571Y-108648476D01*
X187962380Y-108648476D01*
X187962380Y-107743714D02*
X187438571Y-107743714D01*
X187343333Y-107791333D01*
X187295714Y-107886571D01*
X187295714Y-108077047D01*
X187343333Y-108172285D01*
X187914761Y-107743714D02*
X187962380Y-107838952D01*
X187962380Y-108077047D01*
X187914761Y-108172285D01*
X187819523Y-108219904D01*
X187724285Y-108219904D01*
X187629047Y-108172285D01*
X187581428Y-108077047D01*
X187581428Y-107838952D01*
X187533809Y-107743714D01*
X187676666Y-106553238D02*
X187676666Y-106077047D01*
X187962380Y-106648476D02*
X186962380Y-106315142D01*
X187962380Y-105981809D01*
X187962380Y-105648476D02*
X187295714Y-105648476D01*
X187486190Y-105648476D02*
X187390952Y-105600857D01*
X187343333Y-105553238D01*
X187295714Y-105458000D01*
X187295714Y-105362761D01*
X187914761Y-104648476D02*
X187962380Y-104743714D01*
X187962380Y-104934190D01*
X187914761Y-105029428D01*
X187819523Y-105077047D01*
X187438571Y-105077047D01*
X187343333Y-105029428D01*
X187295714Y-104934190D01*
X187295714Y-104743714D01*
X187343333Y-104648476D01*
X187438571Y-104600857D01*
X187533809Y-104600857D01*
X187629047Y-105077047D01*
X187962380Y-103743714D02*
X187438571Y-103743714D01*
X187343333Y-103791333D01*
X187295714Y-103886571D01*
X187295714Y-104077047D01*
X187343333Y-104172285D01*
X187914761Y-103743714D02*
X187962380Y-103838952D01*
X187962380Y-104077047D01*
X187914761Y-104172285D01*
X187819523Y-104219904D01*
X187724285Y-104219904D01*
X187629047Y-104172285D01*
X187581428Y-104077047D01*
X187581428Y-103838952D01*
X187533809Y-103743714D01*
X151251476Y-109867716D02*
X150856238Y-110144383D01*
X151251476Y-110342002D02*
X150421476Y-110342002D01*
X150421476Y-110025811D01*
X150461000Y-109946764D01*
X150500523Y-109907240D01*
X150579571Y-109867716D01*
X150698142Y-109867716D01*
X150777190Y-109907240D01*
X150816714Y-109946764D01*
X150856238Y-110025811D01*
X150856238Y-110342002D01*
X151251476Y-109077240D02*
X151251476Y-109551525D01*
X151251476Y-109314383D02*
X150421476Y-109314383D01*
X150540047Y-109393430D01*
X150619095Y-109472478D01*
X150658619Y-109551525D01*
X150421476Y-108365811D02*
X150421476Y-108523906D01*
X150461000Y-108602954D01*
X150500523Y-108642478D01*
X150619095Y-108721525D01*
X150777190Y-108761049D01*
X151093380Y-108761049D01*
X151172428Y-108721525D01*
X151211952Y-108682002D01*
X151251476Y-108602954D01*
X151251476Y-108444859D01*
X151211952Y-108365811D01*
X151172428Y-108326287D01*
X151093380Y-108286764D01*
X150895761Y-108286764D01*
X150816714Y-108326287D01*
X150777190Y-108365811D01*
X150737666Y-108444859D01*
X150737666Y-108602954D01*
X150777190Y-108682002D01*
X150816714Y-108721525D01*
X150895761Y-108761049D01*
X142869476Y-96370619D02*
X142039476Y-96370619D01*
X142039476Y-96173000D01*
X142079000Y-96054428D01*
X142158047Y-95975380D01*
X142237095Y-95935857D01*
X142395190Y-95896333D01*
X142513761Y-95896333D01*
X142671857Y-95935857D01*
X142750904Y-95975380D01*
X142829952Y-96054428D01*
X142869476Y-96173000D01*
X142869476Y-96370619D01*
X142039476Y-95145380D02*
X142039476Y-95540619D01*
X142434714Y-95580142D01*
X142395190Y-95540619D01*
X142355666Y-95461571D01*
X142355666Y-95263952D01*
X142395190Y-95184904D01*
X142434714Y-95145380D01*
X142513761Y-95105857D01*
X142711380Y-95105857D01*
X142790428Y-95145380D01*
X142829952Y-95184904D01*
X142869476Y-95263952D01*
X142869476Y-95461571D01*
X142829952Y-95540619D01*
X142790428Y-95580142D01*
X168919476Y-105026380D02*
X169591380Y-105026380D01*
X169670428Y-104986857D01*
X169709952Y-104947333D01*
X169749476Y-104868285D01*
X169749476Y-104710190D01*
X169709952Y-104631142D01*
X169670428Y-104591619D01*
X169591380Y-104552095D01*
X168919476Y-104552095D01*
X168919476Y-103761619D02*
X168919476Y-104156857D01*
X169314714Y-104196380D01*
X169275190Y-104156857D01*
X169235666Y-104077809D01*
X169235666Y-103880190D01*
X169275190Y-103801142D01*
X169314714Y-103761619D01*
X169393761Y-103722095D01*
X169591380Y-103722095D01*
X169670428Y-103761619D01*
X169709952Y-103801142D01*
X169749476Y-103880190D01*
X169749476Y-104077809D01*
X169709952Y-104156857D01*
X169670428Y-104196380D01*
X167951380Y-100608285D02*
X167951380Y-101179714D01*
X167951380Y-100894000D02*
X166951380Y-100894000D01*
X167094238Y-100989238D01*
X167189476Y-101084476D01*
X167237095Y-101179714D01*
X161043404Y-103753476D02*
X160766738Y-103358238D01*
X160569119Y-103753476D02*
X160569119Y-102923476D01*
X160885309Y-102923476D01*
X160964357Y-102963000D01*
X161003880Y-103002523D01*
X161043404Y-103081571D01*
X161043404Y-103200142D01*
X161003880Y-103279190D01*
X160964357Y-103318714D01*
X160885309Y-103358238D01*
X160569119Y-103358238D01*
X161833880Y-103753476D02*
X161359595Y-103753476D01*
X161596738Y-103753476D02*
X161596738Y-102923476D01*
X161517690Y-103042047D01*
X161438642Y-103121095D01*
X161359595Y-103160619D01*
X162624357Y-103753476D02*
X162150071Y-103753476D01*
X162387214Y-103753476D02*
X162387214Y-102923476D01*
X162308166Y-103042047D01*
X162229119Y-103121095D01*
X162150071Y-103160619D01*
X136626428Y-93085476D02*
X136349761Y-92690238D01*
X136152142Y-93085476D02*
X136152142Y-92255476D01*
X136468333Y-92255476D01*
X136547380Y-92295000D01*
X136586904Y-92334523D01*
X136626428Y-92413571D01*
X136626428Y-92532142D01*
X136586904Y-92611190D01*
X136547380Y-92650714D01*
X136468333Y-92690238D01*
X136152142Y-92690238D01*
X137416904Y-93085476D02*
X136942619Y-93085476D01*
X137179761Y-93085476D02*
X137179761Y-92255476D01*
X137100714Y-92374047D01*
X137021666Y-92453095D01*
X136942619Y-92492619D01*
X137812142Y-93085476D02*
X137970238Y-93085476D01*
X138049285Y-93045952D01*
X138088809Y-93006428D01*
X138167857Y-92887857D01*
X138207380Y-92729761D01*
X138207380Y-92413571D01*
X138167857Y-92334523D01*
X138128333Y-92295000D01*
X138049285Y-92255476D01*
X137891190Y-92255476D01*
X137812142Y-92295000D01*
X137772619Y-92334523D01*
X137733095Y-92413571D01*
X137733095Y-92611190D01*
X137772619Y-92690238D01*
X137812142Y-92729761D01*
X137891190Y-92769285D01*
X138049285Y-92769285D01*
X138128333Y-92729761D01*
X138167857Y-92690238D01*
X138207380Y-92611190D01*
X127121476Y-91578333D02*
X126726238Y-91855000D01*
X127121476Y-92052619D02*
X126291476Y-92052619D01*
X126291476Y-91736428D01*
X126331000Y-91657380D01*
X126370523Y-91617857D01*
X126449571Y-91578333D01*
X126568142Y-91578333D01*
X126647190Y-91617857D01*
X126686714Y-91657380D01*
X126726238Y-91736428D01*
X126726238Y-92052619D01*
X126291476Y-90866904D02*
X126291476Y-91025000D01*
X126331000Y-91104047D01*
X126370523Y-91143571D01*
X126489095Y-91222619D01*
X126647190Y-91262142D01*
X126963380Y-91262142D01*
X127042428Y-91222619D01*
X127081952Y-91183095D01*
X127121476Y-91104047D01*
X127121476Y-90945952D01*
X127081952Y-90866904D01*
X127042428Y-90827380D01*
X126963380Y-90787857D01*
X126765761Y-90787857D01*
X126686714Y-90827380D01*
X126647190Y-90866904D01*
X126607666Y-90945952D01*
X126607666Y-91104047D01*
X126647190Y-91183095D01*
X126686714Y-91222619D01*
X126765761Y-91262142D01*
X137133142Y-94102380D02*
X136855809Y-93706190D01*
X136657714Y-94102380D02*
X136657714Y-93270380D01*
X136974666Y-93270380D01*
X137053904Y-93310000D01*
X137093523Y-93349619D01*
X137133142Y-93428857D01*
X137133142Y-93547714D01*
X137093523Y-93626952D01*
X137053904Y-93666571D01*
X136974666Y-93706190D01*
X136657714Y-93706190D01*
X137450095Y-93349619D02*
X137489714Y-93310000D01*
X137568952Y-93270380D01*
X137767047Y-93270380D01*
X137846285Y-93310000D01*
X137885904Y-93349619D01*
X137925523Y-93428857D01*
X137925523Y-93508095D01*
X137885904Y-93626952D01*
X137410476Y-94102380D01*
X137925523Y-94102380D01*
X138440571Y-93270380D02*
X138519809Y-93270380D01*
X138599047Y-93310000D01*
X138638666Y-93349619D01*
X138678285Y-93428857D01*
X138717904Y-93587333D01*
X138717904Y-93785428D01*
X138678285Y-93943904D01*
X138638666Y-94023142D01*
X138599047Y-94062761D01*
X138519809Y-94102380D01*
X138440571Y-94102380D01*
X138361333Y-94062761D01*
X138321714Y-94023142D01*
X138282095Y-93943904D01*
X138242476Y-93785428D01*
X138242476Y-93587333D01*
X138282095Y-93428857D01*
X138321714Y-93349619D01*
X138361333Y-93310000D01*
X138440571Y-93270380D01*
X121866523Y-91011047D02*
X121827000Y-91090095D01*
X121747952Y-91169142D01*
X121629380Y-91287714D01*
X121589857Y-91366761D01*
X121589857Y-91445809D01*
X121787476Y-91406285D02*
X121747952Y-91485333D01*
X121668904Y-91564380D01*
X121510809Y-91603904D01*
X121234142Y-91603904D01*
X121076047Y-91564380D01*
X120997000Y-91485333D01*
X120957476Y-91406285D01*
X120957476Y-91248190D01*
X120997000Y-91169142D01*
X121076047Y-91090095D01*
X121234142Y-91050571D01*
X121510809Y-91050571D01*
X121668904Y-91090095D01*
X121747952Y-91169142D01*
X121787476Y-91248190D01*
X121787476Y-91406285D01*
X121787476Y-90260095D02*
X121787476Y-90734380D01*
X121787476Y-90497238D02*
X120957476Y-90497238D01*
X121076047Y-90576285D01*
X121155095Y-90655333D01*
X121194619Y-90734380D01*
X149473476Y-109867716D02*
X149078238Y-110144383D01*
X149473476Y-110342002D02*
X148643476Y-110342002D01*
X148643476Y-110025811D01*
X148683000Y-109946764D01*
X148722523Y-109907240D01*
X148801571Y-109867716D01*
X148920142Y-109867716D01*
X148999190Y-109907240D01*
X149038714Y-109946764D01*
X149078238Y-110025811D01*
X149078238Y-110342002D01*
X149473476Y-109077240D02*
X149473476Y-109551525D01*
X149473476Y-109314383D02*
X148643476Y-109314383D01*
X148762047Y-109393430D01*
X148841095Y-109472478D01*
X148880619Y-109551525D01*
X148643476Y-108326287D02*
X148643476Y-108721525D01*
X149038714Y-108761049D01*
X148999190Y-108721525D01*
X148959666Y-108642478D01*
X148959666Y-108444859D01*
X148999190Y-108365811D01*
X149038714Y-108326287D01*
X149117761Y-108286764D01*
X149315380Y-108286764D01*
X149394428Y-108326287D01*
X149433952Y-108365811D01*
X149473476Y-108444859D01*
X149473476Y-108642478D01*
X149433952Y-108721525D01*
X149394428Y-108761049D01*
D19*
X131992800Y-121158955D02*
X131992800Y-98158955D01*
X144992800Y-98158955D02*
X144992800Y-121158955D01*
X131992800Y-98158955D02*
X144992800Y-98158955D01*
X144992800Y-121158955D02*
X131992800Y-121158955D01*
D20*
X125998500Y-96012724D02*
X125998500Y-95503276D01*
X124953500Y-96012724D02*
X124953500Y-95503276D01*
X182120000Y-99224922D02*
X182120000Y-98932388D01*
X181100000Y-99224922D02*
X181100000Y-98932388D01*
X119780267Y-108224655D02*
X119487733Y-108224655D01*
X119780267Y-107204655D02*
X119487733Y-107204655D01*
X126211000Y-101482000D02*
X126211000Y-99022000D01*
X124741000Y-99022000D02*
X124741000Y-101482000D01*
X124741000Y-101482000D02*
X126211000Y-101482000D01*
X119780267Y-105662000D02*
X119487733Y-105662000D01*
X119780267Y-106682000D02*
X119487733Y-106682000D01*
X129525500Y-108203276D02*
X129525500Y-108712724D01*
X130570500Y-108203276D02*
X130570500Y-108712724D01*
X157930638Y-102395155D02*
X158440086Y-102395155D01*
X157930638Y-101350155D02*
X158440086Y-101350155D01*
X122682000Y-94198000D02*
X122032000Y-94198000D01*
X122682000Y-97318000D02*
X122032000Y-97318000D01*
X122682000Y-97318000D02*
X124357000Y-97318000D01*
X122682000Y-94198000D02*
X123332000Y-94198000D01*
X119124824Y-92949500D02*
X118615376Y-92949500D01*
X119124824Y-93994500D02*
X118615376Y-93994500D01*
X128397500Y-109470276D02*
X128397500Y-109979724D01*
X127352500Y-109470276D02*
X127352500Y-109979724D01*
X126853733Y-118874000D02*
X127146267Y-118874000D01*
X126853733Y-117854000D02*
X127146267Y-117854000D01*
X126265000Y-101482000D02*
X127735000Y-101482000D01*
X126265000Y-99022000D02*
X126265000Y-101482000D01*
X127735000Y-101482000D02*
X127735000Y-99022000D01*
X119126724Y-95518500D02*
X118617276Y-95518500D01*
X119126724Y-94473500D02*
X118617276Y-94473500D01*
X128442000Y-94686000D02*
X131302000Y-94686000D01*
X131302000Y-92766000D02*
X128442000Y-92766000D01*
X128442000Y-92766000D02*
X128442000Y-94686000D01*
X128442000Y-96718000D02*
X131302000Y-96718000D01*
X128442000Y-94798000D02*
X128442000Y-96718000D01*
X131302000Y-94798000D02*
X128442000Y-94798000D01*
X129794724Y-97521500D02*
X129285276Y-97521500D01*
X129794724Y-98566500D02*
X129285276Y-98566500D01*
X118256267Y-111504000D02*
X117963733Y-111504000D01*
X118256267Y-112524000D02*
X117963733Y-112524000D01*
X115950000Y-98466000D02*
X115950000Y-94066000D01*
X112650000Y-94066000D02*
X112650000Y-98466000D01*
X126853733Y-119378000D02*
X127146267Y-119378000D01*
X126853733Y-120398000D02*
X127146267Y-120398000D01*
X124190000Y-118952655D02*
X121330000Y-118952655D01*
X121330000Y-120872655D02*
X124190000Y-120872655D01*
X121330000Y-118952655D02*
X121330000Y-120872655D01*
X118256267Y-109980000D02*
X117963733Y-109980000D01*
X118256267Y-111000000D02*
X117963733Y-111000000D01*
X115950000Y-115992000D02*
X115950000Y-111592000D01*
X112650000Y-111592000D02*
X112650000Y-115992000D01*
X117604000Y-115716267D02*
X117604000Y-115423733D01*
X116584000Y-115716267D02*
X116584000Y-115423733D01*
X126345000Y-102183655D02*
X127070000Y-102183655D01*
X121850000Y-107403655D02*
X121850000Y-106678655D01*
X126345000Y-107403655D02*
X127070000Y-107403655D01*
X122575000Y-102183655D02*
X121850000Y-102183655D01*
X127070000Y-102183655D02*
X127070000Y-102908655D01*
X127070000Y-107403655D02*
X127070000Y-106678655D01*
X122575000Y-107403655D02*
X121850000Y-107403655D01*
X147318000Y-101637922D02*
X147318000Y-101345388D01*
X148338000Y-101637922D02*
X148338000Y-101345388D01*
X119306376Y-119746500D02*
X119815824Y-119746500D01*
X119306376Y-120791500D02*
X119815824Y-120791500D01*
X146797500Y-106171276D02*
X146797500Y-106680724D01*
X147842500Y-106171276D02*
X147842500Y-106680724D01*
X118022000Y-116708000D02*
X118022000Y-113558000D01*
X118022000Y-116708000D02*
X119722000Y-116708000D01*
X119722000Y-116708000D02*
X119722000Y-113558000D01*
X150116000Y-101637922D02*
X150116000Y-101345388D01*
X149096000Y-101637922D02*
X149096000Y-101345388D01*
X118617276Y-92470500D02*
X119126724Y-92470500D01*
X118617276Y-91425500D02*
X119126724Y-91425500D01*
X120034000Y-111120000D02*
X121294000Y-111120000D01*
X120034000Y-117130000D02*
X120034000Y-111120000D01*
X126854000Y-114880000D02*
X126854000Y-111120000D01*
X126854000Y-111120000D02*
X125594000Y-111120000D01*
X157930638Y-105443155D02*
X158440086Y-105443155D01*
X157930638Y-104398155D02*
X158440086Y-104398155D01*
X157930638Y-105922155D02*
X158440086Y-105922155D01*
X157930638Y-106967155D02*
X158440086Y-106967155D01*
X182624000Y-99224922D02*
X182624000Y-98932388D01*
X183644000Y-99224922D02*
X183644000Y-98932388D01*
X139953276Y-95518500D02*
X140462724Y-95518500D01*
X139953276Y-94473500D02*
X140462724Y-94473500D01*
X119018267Y-97030000D02*
X118725733Y-97030000D01*
X119018267Y-96010000D02*
X118725733Y-96010000D01*
X146640000Y-92766000D02*
X143780000Y-92766000D01*
X143780000Y-94686000D02*
X146640000Y-94686000D01*
X146640000Y-94686000D02*
X146640000Y-92766000D01*
X134874724Y-95518500D02*
X134365276Y-95518500D01*
X134874724Y-94473500D02*
X134365276Y-94473500D01*
G36*
X153817084Y-101312276D02*
G01*
X154067449Y-101392403D01*
X154301160Y-101512759D01*
X154936901Y-100994374D01*
X155416381Y-101473854D01*
X154897996Y-102109595D01*
X155018352Y-102343306D01*
X155098479Y-102593671D01*
X155914600Y-102676527D01*
X155914600Y-103354783D01*
X155096292Y-103437861D01*
X154896607Y-103920012D01*
X155416381Y-104557456D01*
X154936901Y-105036936D01*
X154301168Y-104518557D01*
X154033547Y-104656493D01*
X153647308Y-103724050D01*
X153953248Y-103505596D01*
X154048493Y-103369229D01*
X154111373Y-103212857D01*
X154137390Y-103046334D01*
X154125203Y-102878235D01*
X154075438Y-102717198D01*
X153990662Y-102571532D01*
X153875234Y-102448722D01*
X153735092Y-102355086D01*
X153577455Y-102295449D01*
X153410426Y-102272876D01*
X153242612Y-102288531D01*
X153082645Y-102341608D01*
X152938759Y-102429376D01*
X152818358Y-102547315D01*
X152727635Y-102689362D01*
X152671266Y-102848201D01*
X152652417Y-103013297D01*
X152734404Y-103354843D01*
X152830156Y-103498144D01*
X152958402Y-103616684D01*
X153144257Y-103720754D01*
X152757297Y-104654936D01*
X152590626Y-104577596D01*
X152488146Y-104519280D01*
X151853299Y-105036936D01*
X151373819Y-104557456D01*
X151893593Y-103920012D01*
X151693908Y-103437861D01*
X150875600Y-103354783D01*
X150875600Y-102676527D01*
X151693908Y-102593449D01*
X151893593Y-102111298D01*
X151373819Y-101473854D01*
X151853299Y-100994374D01*
X152489040Y-101512759D01*
X152722751Y-101392403D01*
X152973116Y-101312276D01*
X153055972Y-100496155D01*
X153734228Y-100496155D01*
X153817084Y-101312276D01*
G37*
X157930638Y-100852500D02*
X158440086Y-100852500D01*
X157930638Y-99807500D02*
X158440086Y-99807500D01*
X129794724Y-100090500D02*
X129285276Y-100090500D01*
X129794724Y-99045500D02*
X129285276Y-99045500D01*
X189860000Y-115058000D02*
X184360000Y-115058000D01*
X189860000Y-101858000D02*
X184360000Y-101858000D01*
X184560000Y-101858000D02*
X184560000Y-115058000D01*
X189860000Y-101858000D02*
X189860000Y-115058000D01*
X150353500Y-106171276D02*
X150353500Y-106680724D01*
X151398500Y-106171276D02*
X151398500Y-106680724D01*
X146640000Y-94798000D02*
X143780000Y-94798000D01*
X146640000Y-96718000D02*
X146640000Y-94798000D01*
X143780000Y-96718000D02*
X146640000Y-96718000D01*
X168574000Y-101444000D02*
X168574000Y-107344000D01*
X164674000Y-101444000D02*
X164674000Y-107344000D01*
X164674000Y-107344000D02*
X165749000Y-107344000D01*
X157930638Y-103919155D02*
X158440086Y-103919155D01*
X157930638Y-102874155D02*
X158440086Y-102874155D01*
X134874724Y-93994500D02*
X134365276Y-93994500D01*
X134874724Y-92949500D02*
X134365276Y-92949500D01*
X124953500Y-92456724D02*
X124953500Y-91947276D01*
X125998500Y-92456724D02*
X125998500Y-91947276D01*
X117129000Y-103269000D02*
X117579000Y-103269000D01*
X117579000Y-103719000D02*
X117579000Y-103269000D01*
X114919000Y-108789000D02*
X116899000Y-108789000D01*
X112949000Y-108789000D02*
X112549000Y-108789000D01*
X114919000Y-101269000D02*
X116899000Y-101269000D01*
X116899000Y-108789000D02*
X116899000Y-108369000D01*
X116899000Y-101269000D02*
X116899000Y-101689000D01*
X112549000Y-101269000D02*
X112949000Y-101269000D01*
X139953276Y-92949500D02*
X140462724Y-92949500D01*
X139953276Y-93994500D02*
X140462724Y-93994500D01*
X122682000Y-93756855D02*
X122032000Y-93756855D01*
X122682000Y-93756855D02*
X124357000Y-93756855D01*
X122682000Y-90636855D02*
X122032000Y-90636855D01*
X122682000Y-90636855D02*
X123332000Y-90636855D01*
X149620500Y-106171276D02*
X149620500Y-106680724D01*
X148575500Y-106171276D02*
X148575500Y-106680724D01*
%LPC*%
D21*
X144792800Y-110758955D03*
D22*
X134992800Y-98158955D03*
X136392800Y-98158955D03*
X137792800Y-98158955D03*
X139192800Y-98158955D03*
X140592800Y-98158955D03*
X141992800Y-98158955D03*
X143392800Y-98158955D03*
D21*
X144792800Y-106558955D03*
X132192800Y-107958955D03*
X144792800Y-107958955D03*
X132192800Y-105158955D03*
X132192800Y-100958955D03*
X132192800Y-103758955D03*
X132192800Y-102358955D03*
X144792800Y-103758955D03*
X144792800Y-102358955D03*
X144792800Y-105158955D03*
X132192800Y-110758955D03*
X132192800Y-106558955D03*
X144792800Y-100958955D03*
X132192800Y-109358955D03*
D22*
X133592800Y-98158955D03*
D23*
X138492800Y-105658955D03*
D21*
X144792800Y-109358955D03*
D24*
X125476000Y-96670500D03*
X125476000Y-94845500D03*
D25*
X181610000Y-99941155D03*
X181610000Y-98216155D03*
D26*
X120496500Y-107714655D03*
X118771500Y-107714655D03*
D27*
X125476000Y-100697000D03*
X125476000Y-98947000D03*
D26*
X120496500Y-106172000D03*
X118771500Y-106172000D03*
D28*
X130048000Y-107545500D03*
X130048000Y-109370500D03*
D29*
X157272862Y-101872655D03*
X159097862Y-101872655D03*
D30*
X123619500Y-96708000D03*
X123619500Y-94808000D03*
X121744500Y-95758000D03*
D31*
X119782600Y-93472000D03*
X117957600Y-93472000D03*
D28*
X127875000Y-108812500D03*
X127875000Y-110637500D03*
D32*
X126137500Y-118364000D03*
X127862500Y-118364000D03*
D27*
X127000000Y-100697000D03*
X127000000Y-98947000D03*
D31*
X119784500Y-94996000D03*
X117959500Y-94996000D03*
D33*
X129277000Y-93726000D03*
X131327000Y-93726000D03*
X129277000Y-95758000D03*
X131327000Y-95758000D03*
D31*
X130452500Y-98044000D03*
X128627500Y-98044000D03*
D26*
X118972500Y-112014000D03*
X117247500Y-112014000D03*
D34*
X114300000Y-94216000D03*
X114300000Y-98316000D03*
D32*
X126137500Y-119888000D03*
X127862500Y-119888000D03*
D33*
X122165000Y-119912655D03*
X124215000Y-119912655D03*
D26*
X118972500Y-110490000D03*
X117247500Y-110490000D03*
D34*
X114300000Y-115842000D03*
X114300000Y-111742000D03*
D25*
X117094000Y-116432500D03*
X117094000Y-114707500D03*
D35*
X122010000Y-103293655D03*
X122010000Y-103793655D03*
X122010000Y-104293655D03*
X122010000Y-104793655D03*
X122010000Y-105293655D03*
X122010000Y-105793655D03*
X122010000Y-106293655D03*
D36*
X122960000Y-107243655D03*
X123460000Y-107243655D03*
X123960000Y-107243655D03*
X124460000Y-107243655D03*
X124960000Y-107243655D03*
X125460000Y-107243655D03*
X125960000Y-107243655D03*
D35*
X126910000Y-106293655D03*
X126910000Y-105793655D03*
X126910000Y-105293655D03*
X126910000Y-104793655D03*
X126910000Y-104293655D03*
X126910000Y-103793655D03*
X126910000Y-103293655D03*
D36*
X125960000Y-102343655D03*
X125460000Y-102343655D03*
X124960000Y-102343655D03*
X124460000Y-102343655D03*
X123960000Y-102343655D03*
X123460000Y-102343655D03*
X122960000Y-102343655D03*
D37*
X124460000Y-104793655D03*
D25*
X147828000Y-102354155D03*
X147828000Y-100629155D03*
D29*
X118648600Y-120269000D03*
X120473600Y-120269000D03*
D28*
X147320000Y-105513500D03*
X147320000Y-107338500D03*
D38*
X118872000Y-116058000D03*
X118872000Y-113558000D03*
D25*
X149606000Y-102354155D03*
X149606000Y-100629155D03*
D29*
X117959500Y-91948000D03*
X119784500Y-91948000D03*
D39*
X121144000Y-116180000D03*
X123444000Y-116180000D03*
D40*
X123444000Y-109880000D03*
D39*
X125744000Y-116180000D03*
D29*
X157272862Y-104920655D03*
X159097862Y-104920655D03*
X157272862Y-106444655D03*
X159097862Y-106444655D03*
D25*
X183134000Y-99941155D03*
X183134000Y-98216155D03*
D29*
X139295500Y-94996000D03*
X141120500Y-94996000D03*
D26*
X119734500Y-96520000D03*
X118009500Y-96520000D03*
D41*
X145805000Y-93726000D03*
X143755000Y-93726000D03*
D31*
X135532500Y-94996000D03*
X133707500Y-94996000D03*
D29*
X157272862Y-100330000D03*
X159097862Y-100330000D03*
D31*
X130452500Y-99568000D03*
X128627500Y-99568000D03*
D42*
X182960000Y-102058000D03*
X182160000Y-102058000D03*
X181360000Y-102058000D03*
X180560000Y-102058000D03*
X179760000Y-102058000D03*
X178960000Y-102058000D03*
X178160000Y-102058000D03*
X177360000Y-102058000D03*
X176560000Y-102058000D03*
X175760000Y-102058000D03*
X174960000Y-102058000D03*
D43*
X173560000Y-103658000D03*
X173560000Y-104458000D03*
X173560000Y-105258000D03*
X173560000Y-106058000D03*
X173560000Y-106858000D03*
X173560000Y-107658000D03*
X173560000Y-108458000D03*
X173560000Y-109258000D03*
X173560000Y-110058000D03*
X173560000Y-110858000D03*
X173560000Y-111658000D03*
X173560000Y-112458000D03*
X173560000Y-113258000D03*
D42*
X174960000Y-114858000D03*
X175760000Y-114858000D03*
X176560000Y-114858000D03*
X177360000Y-114858000D03*
X178160000Y-114858000D03*
X178960000Y-114858000D03*
X179760000Y-114858000D03*
X180560000Y-114858000D03*
X181360000Y-114858000D03*
X182160000Y-114858000D03*
X182960000Y-114858000D03*
D44*
X180935000Y-110433000D03*
D45*
X183860000Y-105258000D03*
D46*
X173560000Y-102108000D03*
D44*
X176985000Y-110433000D03*
D45*
X183860000Y-111658000D03*
X183860000Y-110058000D03*
X183860000Y-113258000D03*
X183860000Y-110858000D03*
D44*
X180935000Y-108458000D03*
D45*
X183860000Y-108458000D03*
D47*
X178960000Y-108458000D03*
D45*
X183860000Y-103658000D03*
D44*
X176985000Y-106483000D03*
D45*
X183860000Y-112458000D03*
X183860000Y-109258000D03*
D44*
X178910000Y-106483000D03*
X176985000Y-108458000D03*
D48*
X183910000Y-102108000D03*
D45*
X183860000Y-107658000D03*
D44*
X178960000Y-110433000D03*
D46*
X173560000Y-114808000D03*
D49*
X180935000Y-106483000D03*
D45*
X183860000Y-106058000D03*
D48*
X183910000Y-114808000D03*
D45*
X183860000Y-106858000D03*
X183860000Y-104458000D03*
D28*
X150876000Y-105513500D03*
X150876000Y-107338500D03*
D41*
X145805000Y-95758000D03*
X143755000Y-95758000D03*
D50*
X167499000Y-102644000D03*
X165749000Y-102644000D03*
X165749000Y-106144000D03*
X167499000Y-106144000D03*
D29*
X157272862Y-103396655D03*
X159097862Y-103396655D03*
D31*
X135532500Y-93472000D03*
X133707500Y-93472000D03*
D24*
X125476000Y-93114500D03*
X125476000Y-91289500D03*
D51*
X116639000Y-103729000D03*
X116639000Y-104379000D03*
X116639000Y-105029000D03*
X116639000Y-105679000D03*
X116639000Y-106329000D03*
D52*
X113939000Y-108529000D03*
D53*
X113939000Y-107929000D03*
D54*
X116639000Y-102529000D03*
D55*
X113939000Y-106029000D03*
X113939000Y-104029000D03*
D54*
X116639000Y-107529000D03*
D53*
X113939000Y-102129000D03*
D52*
X113939000Y-101529000D03*
D29*
X139295500Y-93472000D03*
X141120500Y-93472000D03*
D30*
X123619500Y-93146855D03*
X123619500Y-91246855D03*
X121744500Y-92196855D03*
D28*
X149098000Y-105513500D03*
X149098000Y-107338500D03*
D46*
X178562000Y-90932000D03*
D56*
X176022000Y-90932000D03*
X173482000Y-90932000D03*
X170942000Y-90932000D03*
X168402000Y-90932000D03*
X165862000Y-90932000D03*
X163322000Y-90932000D03*
X160782000Y-90932000D03*
X158242000Y-90932000D03*
X155702000Y-90932000D03*
X153162000Y-90932000D03*
X150622000Y-90932000D03*
X148082000Y-90932000D03*
X145542000Y-90932000D03*
X143002000Y-90932000D03*
X140462000Y-90932000D03*
X137922000Y-90932000D03*
X135382000Y-90932000D03*
X132842000Y-90932000D03*
X130302000Y-90932000D03*
D46*
X178562000Y-118872000D03*
D56*
X176022000Y-118872000D03*
X173482000Y-118872000D03*
X170942000Y-118872000D03*
X168402000Y-118872000D03*
X165862000Y-118872000D03*
X163322000Y-118872000D03*
X160782000Y-118872000D03*
X158242000Y-118872000D03*
X155702000Y-118872000D03*
X153162000Y-118872000D03*
X150622000Y-118872000D03*
M02*
