G04 #@! TF.GenerationSoftware,KiCad,Pcbnew,6.0.0*
G04 #@! TF.CreationDate,2022-01-16T15:10:04+01:00*
G04 #@! TF.ProjectId,ESP32 UWB,45535033-3220-4555-9742-2e6b69636164,rev?*
G04 #@! TF.SameCoordinates,Original*
G04 #@! TF.FileFunction,Soldermask,Top*
G04 #@! TF.FilePolarity,Negative*
%FSLAX46Y46*%
G04 Gerber Fmt 4.6, Leading zero omitted, Abs format (unit mm)*
G04 Created by KiCad (PCBNEW 6.0.0) date 2022-01-16 15:10:04*
%MOMM*%
%LPD*%
G01*
G04 APERTURE LIST*
G04 Aperture macros list*
%AMRoundRect*
0 Rectangle with rounded corners*
0 $1 Rounding radius*
0 $2 $3 $4 $5 $6 $7 $8 $9 X,Y pos of 4 corners*
0 Add a 4 corners polygon primitive as box body*
4,1,4,$2,$3,$4,$5,$6,$7,$8,$9,$2,$3,0*
0 Add four circle primitives for the rounded corners*
1,1,$1+$1,$2,$3*
1,1,$1+$1,$4,$5*
1,1,$1+$1,$6,$7*
1,1,$1+$1,$8,$9*
0 Add four rect primitives between the rounded corners*
20,1,$1+$1,$2,$3,$4,$5,0*
20,1,$1+$1,$4,$5,$6,$7,0*
20,1,$1+$1,$6,$7,$8,$9,0*
20,1,$1+$1,$8,$9,$2,$3,0*%
%AMFreePoly0*
4,1,6,0.725000,-0.725000,-0.725000,-0.725000,-0.725000,0.125000,-0.125000,0.725000,0.725000,0.725000,0.725000,-0.725000,0.725000,-0.725000,$1*%
G04 Aperture macros list end*
%ADD10RoundRect,0.050000X1.225000X-0.500000X1.225000X0.500000X-1.225000X0.500000X-1.225000X-0.500000X0*%
%ADD11RoundRect,0.050000X-0.500000X-1.225000X0.500000X-1.225000X0.500000X1.225000X-0.500000X1.225000X0*%
%ADD12RoundRect,0.050000X4.500000X5.500000X-4.500000X5.500000X-4.500000X-5.500000X4.500000X-5.500000X0*%
%ADD13RoundRect,0.237500X0.237500X-0.250000X0.237500X0.250000X-0.237500X0.250000X-0.237500X-0.250000X0*%
%ADD14RoundRect,0.237500X0.237500X-0.300000X0.237500X0.300000X-0.237500X0.300000X-0.237500X-0.300000X0*%
%ADD15RoundRect,0.237500X0.300000X0.237500X-0.300000X0.237500X-0.300000X-0.237500X0.300000X-0.237500X0*%
%ADD16RoundRect,0.237500X0.237500X-0.287500X0.237500X0.287500X-0.237500X0.287500X-0.237500X-0.287500X0*%
%ADD17RoundRect,0.237500X-0.237500X0.250000X-0.237500X-0.250000X0.237500X-0.250000X0.237500X0.250000X0*%
%ADD18RoundRect,0.237500X-0.250000X-0.237500X0.250000X-0.237500X0.250000X0.237500X-0.250000X0.237500X0*%
%ADD19RoundRect,0.150000X0.587500X0.150000X-0.587500X0.150000X-0.587500X-0.150000X0.587500X-0.150000X0*%
%ADD20RoundRect,0.237500X0.250000X0.237500X-0.250000X0.237500X-0.250000X-0.237500X0.250000X-0.237500X0*%
%ADD21RoundRect,0.237500X-0.300000X-0.237500X0.300000X-0.237500X0.300000X0.237500X-0.300000X0.237500X0*%
%ADD22RoundRect,0.250000X-0.325000X-0.450000X0.325000X-0.450000X0.325000X0.450000X-0.325000X0.450000X0*%
%ADD23R,1.800000X1.350000*%
%ADD24RoundRect,0.062500X-0.337500X-0.062500X0.337500X-0.062500X0.337500X0.062500X-0.337500X0.062500X0*%
%ADD25RoundRect,0.062500X-0.062500X-0.337500X0.062500X-0.337500X0.062500X0.337500X-0.062500X0.337500X0*%
%ADD26R,3.350000X3.350000*%
%ADD27R,1.000000X1.000000*%
%ADD28R,1.500000X2.000000*%
%ADD29R,3.800000X2.000000*%
%ADD30RoundRect,0.250000X0.325000X0.450000X-0.325000X0.450000X-0.325000X-0.450000X0.325000X-0.450000X0*%
%ADD31R,0.400000X1.800000*%
%ADD32R,1.800000X0.400000*%
%ADD33R,1.450000X1.450000*%
%ADD34R,0.800000X0.400000*%
%ADD35R,1.700000X1.700000*%
%ADD36C,2.800000*%
%ADD37R,0.700000X1.700000*%
%ADD38FreePoly0,270.000000*%
%ADD39R,0.850000X1.600000*%
%ADD40R,1.350000X0.400000*%
%ADD41O,1.550000X0.890000*%
%ADD42R,1.550000X1.200000*%
%ADD43O,0.950000X1.250000*%
%ADD44R,1.550000X1.500000*%
%ADD45O,1.700000X1.700000*%
G04 APERTURE END LIST*
D10*
X144792800Y-110758955D03*
D11*
X134992800Y-98158955D03*
X136392800Y-98158955D03*
X137792800Y-98158955D03*
X139192800Y-98158955D03*
X140592800Y-98158955D03*
X141992800Y-98158955D03*
X143392800Y-98158955D03*
D10*
X144792800Y-106558955D03*
X132192800Y-107958955D03*
X144792800Y-107958955D03*
X132192800Y-105158955D03*
X132192800Y-100958955D03*
X132192800Y-103758955D03*
X132192800Y-102358955D03*
X144792800Y-103758955D03*
X144792800Y-102358955D03*
X144792800Y-105158955D03*
X132192800Y-110758955D03*
X132192800Y-106558955D03*
X144792800Y-100958955D03*
X132192800Y-109358955D03*
D11*
X133592800Y-98158955D03*
D12*
X138492800Y-105658955D03*
D10*
X144792800Y-109358955D03*
D13*
X125476000Y-96670500D03*
X125476000Y-94845500D03*
D14*
X181610000Y-99941155D03*
X181610000Y-98216155D03*
D15*
X120496500Y-107714655D03*
X118771500Y-107714655D03*
D16*
X125476000Y-100697000D03*
X125476000Y-98947000D03*
D15*
X120496500Y-106172000D03*
X118771500Y-106172000D03*
D17*
X130048000Y-107545500D03*
X130048000Y-109370500D03*
D18*
X157272862Y-101872655D03*
X159097862Y-101872655D03*
D19*
X123619500Y-96708000D03*
X123619500Y-94808000D03*
X121744500Y-95758000D03*
D20*
X119782600Y-93472000D03*
X117957600Y-93472000D03*
D17*
X127875000Y-108812500D03*
X127875000Y-110637500D03*
D21*
X126137500Y-118364000D03*
X127862500Y-118364000D03*
D16*
X127000000Y-100697000D03*
X127000000Y-98947000D03*
D20*
X119784500Y-94996000D03*
X117959500Y-94996000D03*
D22*
X129277000Y-93726000D03*
X131327000Y-93726000D03*
X129277000Y-95758000D03*
X131327000Y-95758000D03*
D20*
X130452500Y-98044000D03*
X128627500Y-98044000D03*
D15*
X118972500Y-112014000D03*
X117247500Y-112014000D03*
D23*
X114300000Y-94216000D03*
X114300000Y-98316000D03*
D21*
X126137500Y-119888000D03*
X127862500Y-119888000D03*
D22*
X122165000Y-119912655D03*
X124215000Y-119912655D03*
D15*
X118972500Y-110490000D03*
X117247500Y-110490000D03*
D23*
X114300000Y-115842000D03*
X114300000Y-111742000D03*
D14*
X117094000Y-116432500D03*
X117094000Y-114707500D03*
D24*
X122010000Y-103293655D03*
X122010000Y-103793655D03*
X122010000Y-104293655D03*
X122010000Y-104793655D03*
X122010000Y-105293655D03*
X122010000Y-105793655D03*
X122010000Y-106293655D03*
D25*
X122960000Y-107243655D03*
X123460000Y-107243655D03*
X123960000Y-107243655D03*
X124460000Y-107243655D03*
X124960000Y-107243655D03*
X125460000Y-107243655D03*
X125960000Y-107243655D03*
D24*
X126910000Y-106293655D03*
X126910000Y-105793655D03*
X126910000Y-105293655D03*
X126910000Y-104793655D03*
X126910000Y-104293655D03*
X126910000Y-103793655D03*
X126910000Y-103293655D03*
D25*
X125960000Y-102343655D03*
X125460000Y-102343655D03*
X124960000Y-102343655D03*
X124460000Y-102343655D03*
X123960000Y-102343655D03*
X123460000Y-102343655D03*
X122960000Y-102343655D03*
D26*
X124460000Y-104793655D03*
D14*
X147828000Y-102354155D03*
X147828000Y-100629155D03*
D18*
X118648600Y-120269000D03*
X120473600Y-120269000D03*
D17*
X147320000Y-105513500D03*
X147320000Y-107338500D03*
D27*
X118872000Y-116058000D03*
X118872000Y-113558000D03*
D14*
X149606000Y-102354155D03*
X149606000Y-100629155D03*
D18*
X117959500Y-91948000D03*
X119784500Y-91948000D03*
D28*
X121144000Y-116180000D03*
X123444000Y-116180000D03*
D29*
X123444000Y-109880000D03*
D28*
X125744000Y-116180000D03*
D18*
X157272862Y-104920655D03*
X159097862Y-104920655D03*
X157272862Y-106444655D03*
X159097862Y-106444655D03*
D14*
X183134000Y-99941155D03*
X183134000Y-98216155D03*
D18*
X139295500Y-94996000D03*
X141120500Y-94996000D03*
D15*
X119734500Y-96520000D03*
X118009500Y-96520000D03*
D30*
X145805000Y-93726000D03*
X143755000Y-93726000D03*
D20*
X135532500Y-94996000D03*
X133707500Y-94996000D03*
D18*
X157272862Y-100330000D03*
X159097862Y-100330000D03*
D20*
X130452500Y-99568000D03*
X128627500Y-99568000D03*
D31*
X182960000Y-102058000D03*
X182160000Y-102058000D03*
X181360000Y-102058000D03*
X180560000Y-102058000D03*
X179760000Y-102058000D03*
X178960000Y-102058000D03*
X178160000Y-102058000D03*
X177360000Y-102058000D03*
X176560000Y-102058000D03*
X175760000Y-102058000D03*
X174960000Y-102058000D03*
D32*
X173560000Y-103658000D03*
X173560000Y-104458000D03*
X173560000Y-105258000D03*
X173560000Y-106058000D03*
X173560000Y-106858000D03*
X173560000Y-107658000D03*
X173560000Y-108458000D03*
X173560000Y-109258000D03*
X173560000Y-110058000D03*
X173560000Y-110858000D03*
X173560000Y-111658000D03*
X173560000Y-112458000D03*
X173560000Y-113258000D03*
D31*
X174960000Y-114858000D03*
X175760000Y-114858000D03*
X176560000Y-114858000D03*
X177360000Y-114858000D03*
X178160000Y-114858000D03*
X178960000Y-114858000D03*
X179760000Y-114858000D03*
X180560000Y-114858000D03*
X181360000Y-114858000D03*
X182160000Y-114858000D03*
X182960000Y-114858000D03*
D33*
X180935000Y-110433000D03*
D34*
X183860000Y-105258000D03*
D35*
X173560000Y-102108000D03*
D33*
X176985000Y-110433000D03*
D34*
X183860000Y-111658000D03*
X183860000Y-110058000D03*
X183860000Y-113258000D03*
X183860000Y-110858000D03*
D33*
X180935000Y-108458000D03*
D34*
X183860000Y-108458000D03*
D36*
X178960000Y-108458000D03*
D34*
X183860000Y-103658000D03*
D33*
X176985000Y-106483000D03*
D34*
X183860000Y-112458000D03*
X183860000Y-109258000D03*
D33*
X178910000Y-106483000D03*
X176985000Y-108458000D03*
D37*
X183910000Y-102108000D03*
D34*
X183860000Y-107658000D03*
D33*
X178960000Y-110433000D03*
D35*
X173560000Y-114808000D03*
D38*
X180935000Y-106483000D03*
D34*
X183860000Y-106058000D03*
D37*
X183910000Y-114808000D03*
D34*
X183860000Y-106858000D03*
X183860000Y-104458000D03*
D17*
X150876000Y-105513500D03*
X150876000Y-107338500D03*
D30*
X145805000Y-95758000D03*
X143755000Y-95758000D03*
D39*
X167499000Y-102644000D03*
X165749000Y-102644000D03*
X165749000Y-106144000D03*
X167499000Y-106144000D03*
D18*
X157272862Y-103396655D03*
X159097862Y-103396655D03*
D20*
X135532500Y-93472000D03*
X133707500Y-93472000D03*
D13*
X125476000Y-93114500D03*
X125476000Y-91289500D03*
D40*
X116639000Y-103729000D03*
X116639000Y-104379000D03*
X116639000Y-105029000D03*
X116639000Y-105679000D03*
X116639000Y-106329000D03*
D41*
X113939000Y-108529000D03*
D42*
X113939000Y-107929000D03*
D43*
X116639000Y-102529000D03*
D44*
X113939000Y-106029000D03*
X113939000Y-104029000D03*
D43*
X116639000Y-107529000D03*
D42*
X113939000Y-102129000D03*
D41*
X113939000Y-101529000D03*
D18*
X139295500Y-93472000D03*
X141120500Y-93472000D03*
D19*
X123619500Y-93146855D03*
X123619500Y-91246855D03*
X121744500Y-92196855D03*
D17*
X149098000Y-105513500D03*
X149098000Y-107338500D03*
D35*
X178562000Y-90932000D03*
D45*
X176022000Y-90932000D03*
X173482000Y-90932000D03*
X170942000Y-90932000D03*
X168402000Y-90932000D03*
X165862000Y-90932000D03*
X163322000Y-90932000D03*
X160782000Y-90932000D03*
X158242000Y-90932000D03*
X155702000Y-90932000D03*
X153162000Y-90932000D03*
X150622000Y-90932000D03*
X148082000Y-90932000D03*
X145542000Y-90932000D03*
X143002000Y-90932000D03*
X140462000Y-90932000D03*
X137922000Y-90932000D03*
X135382000Y-90932000D03*
X132842000Y-90932000D03*
X130302000Y-90932000D03*
D35*
X178562000Y-118872000D03*
D45*
X176022000Y-118872000D03*
X173482000Y-118872000D03*
X170942000Y-118872000D03*
X168402000Y-118872000D03*
X165862000Y-118872000D03*
X163322000Y-118872000D03*
X160782000Y-118872000D03*
X158242000Y-118872000D03*
X155702000Y-118872000D03*
X153162000Y-118872000D03*
X150622000Y-118872000D03*
M02*
