M48
; DRILL file {KiCad 6.0.0} date So 16 Jan 2022 15:10:24 CET
; FORMAT={-:-/ absolute / metric / decimal}
; #@! TF.CreationDate,2022-01-16T15:10:24+01:00
; #@! TF.GenerationSoftware,Kicad,Pcbnew,6.0.0
; #@! TF.FileFunction,Plated,1,2,PTH
FMAT,2
METRIC
; #@! TA.AperFunction,Plated,PTH,ViaDrill
T1C0.254
; #@! TA.AperFunction,Plated,PTH,ViaDrill
T2C0.300
; #@! TA.AperFunction,Plated,PTH,ViaDrill
T3C0.305
; #@! TA.AperFunction,Plated,PTH,ViaDrill
T4C0.400
; #@! TA.AperFunction,Plated,PTH,ComponentDrill
T5C0.500
; #@! TA.AperFunction,Plated,PTH,ComponentDrill
T6C0.550
; #@! TA.AperFunction,Plated,PTH,ComponentDrill
T7C1.000
; #@! TA.AperFunction,Plated,PTH,ComponentDrill
T8C2.400
%
G90
G05
T1
X128.808Y-102.355
T2
X115.316Y-108.966
X115.422Y-100.584
X115.443Y-104.013
X115.443Y-105.029
X115.443Y-106.045
X119.072Y-103.685
X119.634Y-105.41
X120.65Y-104.394
X121.645Y-106.953
X121.998Y-98.825
X122.28Y-91.078
X122.28Y-93.618
X122.407Y-99.968
X123.169Y-100.577
X123.169Y-101.415
X123.931Y-101.092
X127.762Y-114.808
X128.016Y-96.945
X130.331Y-100.959
X131.826Y-98.806
X134.529Y-104.515
X134.656Y-101.721
X135.393Y-102.102
X135.469Y-100.782
X135.596Y-104.515
X136.18Y-101.696
X136.714Y-104.566
X137.095Y-102.026
X137.146Y-100.756
X137.831Y-104.592
X138.035Y-101.696
X138.822Y-100.68
X138.873Y-102.128
X138.949Y-104.515
X139.66Y-101.696
X140.143Y-104.566
X140.194Y-100.731
X140.397Y-102.128
X141.057Y-101.696
X141.337Y-104.515
X141.565Y-100.68
X141.794Y-102.077
X142.48Y-101.671
X142.48Y-104.515
X159.999Y-94.253
X160.05Y-104.921
X160.075Y-100.476
X161.544Y-94.234
X161.798Y-92.456
X164.19Y-106.04
X168.508Y-106.394
X171.201Y-112.299
X176.992Y-106.267
X176.992Y-108.299
X176.992Y-110.331
X179.024Y-106.267
X179.024Y-110.331
X181.056Y-106.267
X181.056Y-108.299
X181.056Y-110.331
T3
X112.903Y-117.983
X113.411Y-96.139
X115.824Y-92.456
X115.951Y-117.602
X116.819Y-89.427
X117.073Y-99.333
X117.073Y-101.111
X117.073Y-120.415
X117.221Y-119.253
X118.597Y-97.809
X118.871Y-94.253
X118.925Y-90.084
X119.888Y-117.602
X120.121Y-101.111
X120.883Y-110.636
X120.904Y-118.745
X121.03Y-89.819
X122.174Y-117.856
X122.414Y-114.142
X122.936Y-111.506
X123.169Y-103.905
X123.169Y-105.683
X124.058Y-104.794
X124.206Y-98.552
X124.274Y-89.85
X124.947Y-103.905
X124.947Y-105.683
X125.802Y-108.55
X126.567Y-90.302
X126.746Y-93.218
X127.0Y-113.03
X128.016Y-117.094
X128.384Y-91.989
X130.408Y-104.286
X130.433Y-106.216
X130.484Y-105.378
X131.318Y-97.282
X145.502Y-99.156
X146.874Y-99.435
X147.828Y-99.06
X148.137Y-104.159
X148.798Y-103.549
X148.844Y-99.822
X149.458Y-104.159
X150.368Y-99.568
X150.982Y-112.668
X151.236Y-100.984
X151.236Y-103.778
X151.871Y-116.478
X154.478Y-92.268
X154.538Y-116.478
X155.224Y-110.991
X155.554Y-100.984
X155.554Y-103.778
X155.554Y-106.318
X156.053Y-96.793
X156.21Y-94.714
X156.443Y-111.906
X157.002Y-118.002
X157.018Y-92.268
X157.357Y-96.793
X158.593Y-96.793
X158.81Y-94.199
X159.491Y-108.477
X159.491Y-111.906
X160.634Y-109.874
X161.269Y-111.144
X161.396Y-95.142
X162.031Y-104.286
X162.031Y-108.477
X162.56Y-100.222
X163.047Y-111.906
X164.063Y-100.222
X164.444Y-94.634
X164.622Y-118.002
X165.968Y-101.492
X166.095Y-108.477
X166.095Y-111.906
X167.492Y-93.491
X168.635Y-98.825
X168.813Y-114.369
X169.651Y-92.348
X169.651Y-108.477
X169.702Y-118.002
X170.032Y-96.031
X170.159Y-104.794
X170.18Y-101.6
X170.688Y-114.957
X171.188Y-109.099
X171.188Y-109.899
X171.188Y-110.699
X171.188Y-111.499
X171.42Y-115.346
X171.445Y-102.362
X171.661Y-113.03
X172.018Y-105.35
X172.064Y-94.761
X172.212Y-103.632
X172.212Y-107.28
X172.318Y-97.174
X172.699Y-98.698
X172.974Y-101.6
X173.518Y-97.936
X174.223Y-96.412
X174.858Y-97.428
X175.493Y-104.667
X175.493Y-108.299
X175.493Y-112.287
X177.271Y-97.555
X179.024Y-104.667
X179.024Y-112.287
X179.832Y-100.838
X179.841Y-115.589
X180.319Y-118.129
X180.319Y-120.161
X180.471Y-89.551
X180.605Y-91.79
X181.653Y-93.004
X181.843Y-116.859
X182.605Y-104.667
X182.605Y-108.299
X182.605Y-112.287
X183.616Y-93.069
X183.875Y-116.859
T4
X118.724Y-109.474
X119.486Y-109.474
X120.248Y-109.474
X125.73Y-112.522
X130.23Y-103.168
X146.639Y-102.355
X157.357Y-98.698
X180.192Y-99.968
T7
X130.302Y-90.932
X132.842Y-90.932
X135.382Y-90.932
X137.922Y-90.932
X140.462Y-90.932
X143.002Y-90.932
X145.542Y-90.932
X148.082Y-90.932
X150.622Y-90.932
X150.622Y-118.872
X153.162Y-90.932
X153.162Y-118.872
X155.702Y-90.932
X155.702Y-118.872
X158.242Y-90.932
X158.242Y-118.872
X160.782Y-90.932
X160.782Y-118.872
X163.322Y-90.932
X163.322Y-118.872
X165.862Y-90.932
X165.862Y-118.872
X168.402Y-90.932
X168.402Y-118.872
X170.942Y-90.932
X170.942Y-118.872
X173.482Y-90.932
X173.482Y-118.872
X176.022Y-90.932
X176.022Y-118.872
X178.562Y-90.932
X178.562Y-118.872
T8
X178.96Y-108.458
T5
X114.264Y-101.529G85X113.614Y-101.529
G05
X114.264Y-108.529G85X113.614Y-108.529
G05
T6
X116.639Y-102.379G85X116.639Y-102.679
G05
X116.639Y-107.379G85X116.639Y-107.679
G05
T0
M30
